<mxfile host="app.diagrams.net" agent="Mozilla/5.0 (Windows NT 10.0; Win64; x64; rv:132.0) Gecko/20100101 Firefox/132.0" version="24.8.6">
  <diagram name="Page-1" id="l8e8xHy7bzlIKwO4cSwk">
    <mxGraphModel dx="1383" dy="737" grid="1" gridSize="10" guides="1" tooltips="1" connect="1" arrows="1" fold="1" page="1" pageScale="1" pageWidth="827" pageHeight="1169" math="0" shadow="0">
      <root>
        <mxCell id="0" />
        <mxCell id="1" parent="0" />
        <mxCell id="imnoLfW1JiIDLwUic9jQ-2" value="CNN" style="rounded=0;whiteSpace=wrap;html=1;fontSize=14;" vertex="1" parent="1">
          <mxGeometry x="270" y="350" width="320" height="60" as="geometry" />
        </mxCell>
        <mxCell id="imnoLfW1JiIDLwUic9jQ-3" value="CNN" style="rounded=0;whiteSpace=wrap;html=1;fontSize=14;" vertex="1" parent="1">
          <mxGeometry x="270" y="510" width="320" height="60" as="geometry" />
        </mxCell>
        <mxCell id="imnoLfW1JiIDLwUic9jQ-4" value="Shared weights" style="text;html=1;align=center;verticalAlign=middle;whiteSpace=wrap;rounded=0;fontSize=14;" vertex="1" parent="1">
          <mxGeometry x="390" y="442" width="120" height="30" as="geometry" />
        </mxCell>
        <mxCell id="imnoLfW1JiIDLwUic9jQ-5" value="" style="shape=image;verticalLabelPosition=bottom;labelBackgroundColor=default;verticalAlign=top;aspect=fixed;imageAspect=0;image=data:image/png,iVBORw0KGgoAAAANSUhEUgAAAIsAAAB8CAIAAADW7NQJAAAAB3RJTUUH3QkRFisDcBOEywAAIABJREFUeJx8vEusJVl2Hbb23udExP29b37rl/Xrru5ms5t0q2WLBCmKkkXQoCAbMDwxDEoaEDTIgWeGPKEHFmiP6KGkqSeUBzYMAzII2B6YBEiRTZFssq2uqq6uyvrl52W+z/1GxDl7bw9OxH0vu9i+QGVW3ndf3Iizf2uvvc6h3/jN/2o2O5rNpo8ePf2D3//9X/3Vf/KP/tGvfudP/81v/MZv/Mqv/Mrdu3e7rru4uPjN3/zNf/kv/8W3vvU3FovF2dnZD37w/i/+4t/95je/8Tu/8zsnJ6dMUtf1S6/c/hf//J//2q/9l0+fPv3ww4ci/HN/+z+4dXrrt37rt1599dV/8o9/7c/+7M++/96fX11d/fqv//pPffOb/90/+2dPnjz5yjtf7bpOFX/5l9/97d/+78/Ozn77t/+HO3fu/OzP/tx/9Mu/fOt0sVx1j86u3nvvvf/lf/s/dm27ODyo6zpn06xGICImUbPkCkBCEOaGwczuysKBWFigamqRK2ICIMyBmJh7gkjIFZsajJiImQGYGTMT4OYiDACAuTMRs5ipSIhCZkawKlZ1CCHGad3EGF2tbXfaJiJqmmY+n6/zbrvZZPTMXNdRhOtY1XUNgIiaZhJjCMQAWKSuawo9C8dQLxYL+qf/zX9bVzNz/zd/9Mff+973jo6O1XSzXrHwL/3SL33zG9+oquqP/uiPzs7OvvHNb371q+8w83K5XK9Wf/lXf9V13WKx+MpX3una9OzZc0f7Z3/+5196+526rr/+9W9UVfXe+3/57rvv5ZyePz9/840vv/LKyye3Zm3bvv/++0GkaZrX33hjuVxXVdXu+vOL8z/4/T84ODi4e/f+W2+99X/9n//3crkUCX3q7770+q3T0zv3HpyenhphuVw6yjqqhAAmVcvmACBOxDUTETGMWaIIM0NNzZrQACAHMbGDiDKIiHQS1ZSUJIRATERmJkGKYdy8fN7dmZmIzTRIcPGUEsOqWE1ixczzySLG4Gpd12mfADRVCCE+Xj7LOTv7dDppqqiqAEIIdV3HGKfTaVVVQgSAxasYNWZzq2Izm83ov/6nv6WJ+tSnpJq167qqqp4+fXR4ePTWW2/evXePiNq23W23s/l80lRqZmZE9Pnnn6uqiLh7DHXWfHn1lIgODo5u37otHACsNs9Tyuv1ervdmtLt27fvvXS83WyePH2a+v7uvXtN0/R9Xi6X7a5fLBbPnz8XYYKwyNnT52WBZrNpb4GZFwe3zGzbts/Pn0/nBzmluq6Lhcw8qRERBQIQ4czMMJHAADPD3N0nceLuMCNiBoiodwegTXT3QKFYyN3dXYIIi7sBIGKYARAWACknZnaylLKQV1U1CRULN3ESY7Csu+0u9727RyFmWVvLzBCPsQqMcn1mLhaaTCZ1XQcWIgrBJYSdb0ytaaaz+SxsN1uRmFIXw+T46KiqqhDiaw9eCSJHR8d1VVdVFUM8PTlZLpfm5E4xBAAvvfTSbrfNWTfrNYAg4c6dOyXnxBiZQ9/3x8cn2+1msVjsdtvVcndycnp1dVHXlbvHqjLVruuWy7Wbz2bTzz77jIWPZ0ch1JOmiaGqqirE2HXd+dWu7/vPH30mzIuj45Pjk1hVu90W7IABAiAEBsDExMSqgYU5AiCYmbELASknInJ3ggsL4ObOIuzs7gQmI2fyctUMBBCYiN0MYCLOTEykqVdV56xkRs5smQE3QUoppbbf7DbeKYAoTERbaFVFEJtqp1CzQBwCpTZJst64zqhZQghRHMhrXccY4ZnQy8///C82TTOdTt2omTRmfnCwqGKYTKfM3DR127YSQkqJmHe7Xer72XxGzCIiIma23e1SypNJs9lcMZE7mZk7VqsVsXVdG0J0dwlV3/fm/eXlRd/1RFTV9XQ6FQ5d16mqCBPx5eWFqi+vriREd1c1U217NTOWuFgszOHuOWcidjgREwszeclIJRG5MzMzExHczJxAZppTNjMzc3MQzC2biwhEzJ2cyiXUzEuucPfyfe7lFw1uZqYZgFEJL4QQIgd3E+acte+6rutS27vDTVV10++IiITMXNVSSjAQkWr5GlXNUFNV1dS17TZtiIhIsuYwnU37nNw1NOh144TzdT44OKoiG/vVdpVdPW0NUFUS4ijn/UYkKBwBfDA5Wrz05OHnG+0Rm96p4tgbyN1EVrvcddbmXc45J7hbRpuSi0yMebVNbV4DUAopq3GV0bvUy90uSLDNLoTAHAD0OaWceud+vYRSyX7EFJpaNZtZsQ0AdriqwkmV3QAIlTqf3E0kCLmwGOBmIsyRkvahEiZnNmEKJADULAQpGa+EGuAAyBTAxjMTE4iYiajLnnIvIr2mrNmy9c4qDHhNgYimzKTkO3dosWvi3kxjjABUEwuyk5tnTQDqELXNm3ZJRCGGaMVH3M1UzZk19X3HAiBrzmburjB3r+saCvbQ98kIAEzV3c20bbPAWaRPfcrUdZ25q6acc0pu5qm3lHLyLbNUIRBRr6l8DADAbp41l1xfanXOmQjurmYSQs3RS4Zyc3dTy6oAMJgMABwwMzVzd4IVmxGNRiUWZiYCQLi29IDT3N1N3QoGyRlqiYiB4RsBODuAru9EAguEmUWcqNyEuxZ4RkzCUha23GFKOfddiSQRHvypPKmbZk3Ibg5PRMTC7l4iNRCTu2fNRBQkENzdu13btx0xuxkK+iQAUBJ3s743Mx0CX828MwUQXcgBZDNTNWIKIkQRLHBVb5NapppdkDkZqTvAZfmEyOFgoajDQjucmEgcLgRzF5ADLKxKWRMBnjIxGTsAIwYgVhKVAXCUP0EkeyMBUDgVyzvKAqbtDoATKzNxuv5kn5jIWQBoWW4mCUEVRF6sQgSSIaM6wd2JACaFO6wzJ6IINoeDATIATlDPMMrJTIOxiQ1pGmAhdQJKRbRw89YlSEEBnl1VUeKj/JxJ1VAWyCxrTqrF1wCYmrvBvKyOmeWsMYYYQkkE6p5V+z4pI0aU3kXdAZTyQ0MuQpBQkkxxLIYRU4kJQIkoZy0GKI4PdYMDcCpZCPuMR1TuB06+f0w1UzMiYgcxgQlA3ykxKTEz0xhkACxlAMVC2aysQ3S/EVhUcqw6RF7wA3fLWV2tIP9iXQBurgBgADI5EZshxBC4NGCWsudsIsGd3C3EqpqHYKZgCiEC7O7s3Pd9Uk0pJU2mlt1yztm8qqqkmnJyAhERsZn1qXd3zz0AdgagUDLOBndl15xz6nLf50zqbuQ8rC+QiVgkM9/MSO5u2TRnwIioADAhEEAwNS2AxEkAWOmEYABMSzyBx8xjRCDsl87M9gYm43IFZgdc4YATrDRbxR7ETCSlGpUcm92YGOYO02JtoswcQqhDLDbwbKqmml3NiIylBC8AiJMRu3kQEBMZEJiRUnZ3IjezDkmY4QwgsHDTNBKCwQCkZDnnQDHn7Dmp5pw1p5RKrJj1fd+lPquCSSQUZ9Gc1QwZABgiwsSUNa83G3cLwmqWcnJ3h+WspePQUnuJSLUYhr2EOQNAtpQTnIm5ilHCdbgTEwwikq8ddqhN8NFWIqXjGePphnebl4u4D8Zw+D4o2QC2fUzffBENpnZzh4OG4lReOWcLykSMAaSpGrmP0TbWpFKBqLxBzFI8IaNczQCESMMdmoeUzJCDw83V1MEpW9au3fVd36aUzRXmDBJmV8s5a6n+BI8mzGqmpbEYgoqdSTioadd1mjMLC4u6G4GIVbP69fObe2FTyu8yM5kTE8BEwYe6DSIC+wtGAjjZEENuGBehVFYAykxETORmXuIJSkwlb5cL0WBgc3MWcXcDBEPUZje2AcUNSMFR0hoTl/eHfwJq1vVJJIQg5u6qwydKZS7ghYjgwlw8CmpmBlVXcw0s7p5FAjEToQ7BYaHd7dCxu5l7jJFDJOLVap1Tch8yfggizAD6vmeinLOZKVytJBbzQnYRswyVf0RoyKpsZjy4m5mqGuBl7czdBqwIIoohgNndYQPWKnA2ZzX3IOTuxRL71OduzsW9Cn4jArl7zgo2IjIic/ehdyEBY2h7yoorSpbhAbLv02xZfdtbsWBXcyKqqkpEzHLhb5gZZppVzXNWVXF3VxuCVW5gzZIzqNyk5axmpsShEBZm5ppSVoNI8GQSQrhYXhmciKrY9NnAPRGpZieYkzols5JQAcyms6wZ7JpNATdLKZtpDJGI1JSV4Fy8udgATAY43NxAcIgTyiqruxW4PJKS7s6qMqwJu5fyjz4rs5T3ZQ983UCBmPSFFXcHTLOwOFDAGgPGCCJ932PEJs4kzEQgoj4nIgIKW+oGj3K9ml7+BoiJAHcXUCUhw3LXu5mzM0CD87j2JdWOCZC8ripzT5rNLJsZPBCICQ4RATGYwORMBX93aceqLZKpha7rioXcKJTmm4ituOHQgZtpydR935f3S0UZnYJTTgAEnLNhzGDEbHtQZDYYg4d39tfBWCRKRHrJGkC5TuErzYoBCICrDg7uToKAwFHcXUqaBJg5aTZ3utEolR7F85BthB0k7l4SoYiUGy4fVjMezIH93d6sZCklIjLTcrlS0ES4sODFq/i6QkFN93XI3VXdPDNL4Gtk1Pd94ePNrOs3zMwchTl0XSrclHM2Gjw3KpdSV2yupsWKvSZ3V1dTK1EfKDh8p72724C7mFmYHYBqqa4DX1JCywnu5O5ggTu5lXS3X4LyaOUfRsM/S60tD2PuVL5fQDz8blldMZA7+4AHmMioFEl383JzNFQnkMPMiBxmIuyjrzARSQCxm7pjj61hBUwiaSZis6RWmjEHkdngm8VCNwwEK1mDYCjZFO5cmnQnYjcHiIJmA7k76tCYKTkLJKQ+KYxVwFT4QXe3TKrm7mZa+p6Cu5i1YDAvF2W+TgUvQqZ9kSCSwXEKG+Y0/pwHJG0F27yQrDFmrcF/yxfZ9ZvDUo43UCq8l7aQhh4FBHU4QYnIVIcKMASHe/EaYibtexXhMDQ0RgQwsw/VdEDnpbMhADklFAJPlYjcx9LlhZt44UFY2Aylcrsbj1n6+ilKI+UYML2Zk5oZPAMIXVZ3FwaJwodV63stdUI1a0E6NJCSGGumwj0PT53LtxLMjUDuago1pdIalmygWh6WiOFaulR3cyYfn6pE4D6S9nWolFwzd3NYLg5SSoSADLAxyGxAL6Ur2udhhzmRcyF9ylMAcDCBHETiVhoiV3d363sX5mFEtPcVIpACILeh+Ssxbcpgd7MbGJ3H6HF3MzfTYm81uANkbO7MMCqhfRO4930yUw5VDBIKGjJyU1NWjF393osHQDJGyX4dVTPGBD0UBrXxQchd1bSW2qgAggKLYASiYg/bf0sBPkOmMits07Vj7j9m1//dZNvKW2ZakF65E5YXAD2bG3tgjjGWG1a4qZXOZjafD580K/XcjMw9DCv+Qm9kqntibR8HBfSKsJuX+yK/vvmCYAsnNGBRdho6DBqjuQDjXMKgQIbdbhcElEvnCJC5M2XNlZM5xAuJMuQlI8ZAAzI5gbgsOhkEBfqoqQKmZuSAGYmxQ83JDOblwYOIeakHA8DVsaUojSCs+GnJbCWIeLiPUoRH49DIRJh5+aJyKYWB+KZXlUUs2H3/vvvgVAOXSmX6F9SzhSF7D4t9w2UBQEpSMiImR4EyVFyPh05jjHtioDioDj3GEEREVLhtmJtqyaVW5hVlZqhw95BSym6sBMBEhmyGyovnu49Dk+EWhdnczDyrqg0xN9Jket2plJXK2UWGIlSinc2dX6Cjy8ObG5dMNfTzBVsXpQCPTSgx09gwltUewsttaFgL8mMIs+FHX/tPDZDOBwLo4vJSmJmFRqhJY2N308bDj5hU83idTCNDUUDh9cdGt8j7Oyu2K3YdzW/uVMpATgAgcDMSFmaRKCLBho4cppZHT1lZ6zcK2n4Rv/DIAJBzT+MnhYh4UHcYHOpSXBfBYMZiUHZWODuoMC4ONrg7GTkKdgJezCxiCYBzKbWl0BiBV5uLqqoKgteCENkUNqFAyCXuiCiKIxgRuAIHIEYGpIwBDWpWDyQRVC0bmMmNHJRVS1AGkazKRE1TdV0+Oj4spM7AvKkVx+r7fugcslrOAIgkSMha6qO5ezItiXq72S0WCzMn15wzuQJgoSrG42l9fHxycnwaYgxmVp6wzBOG6u0Dk33ztW9UftSnbiQTJyqTSi5hYZoASBxcuzCqTCRi7kPM3GgUyrMKQMxubr6vVQBgeOEG3E2EzXSwJhMzOxGLkJbAAjExCws7DYx11mwjX+DuRX/ixOV5y2+pOhHBrOsSEamZhQAgqZprTmm1WpcbUFVySBk9uI2VuCymaykvZik7AAlUOBd3h+acdbvduTvDzB1lqQLPptPj45M333zj8PDE3YYEVaJ7TxcqQff07hg5TihqiptoskzJcDO8hoFYmUEBgGvBpkRl1lIyKXmigjWuJ6SuNrICnr30s0xEGYo97wIGoKU2DNNosBQWWoSImGAZYIML2ImNzEfGekhxaoo9cmE4MzEAdRMqLgoAajmGYGoJOYYgIkwkIXT9DjeaJx+nGC5eRpqxioFiVoWR5uyqRMQQIfZQ2DjaO31B4SUtRjcmv3x6/pGiS+/VdR1uemUZ9gD464Nlz1bdNMcX0vTNDw95eYhR8husl7pirC57Eo+uGykf47KgYsfYAw6BVRQd7uYGZiumZQcRu/CeARpZZQzJJ7t7AhERmJhFylimR1nxQgSTUCksVRXrunbvABBxn3pVTzlV1XUhgYjlXJrucn01Y5GqiuxOoDyug5tDyuTcmYtKaii6LFIWncX7vodj88kn6+2WiILTiGnK2lFhAcbpI24Wdftrbef7rqUUwDKfIiqt0X5lfVBkYL/uKDNAGtZ27wElXzMHZh4WuXh0YSKGeTMZCGBhMRpmSIUcI/NE2QkOUrgQdLAd+jIWZiGCsFBgEgaxWQYzRrsCAClAVaxiiH1ImjN59twrYFmpln1u15wBKFBG8mXKnlNapaRmlszMpLCJQcwdPIBJZinaA8BgPLD1RshgRtelmkVCuG59zJyKEInx4wJjuHu/+c6P+aSVeQRGsgZlWGvjPJ+Yir0LW3HzmkQ3kG5h8AZeAwAYVAYnYJT755FwBCBEzDwwh4PVS0opBNDoUgO1XNpgn0D231X+x8xD4JzV2rbrunLl2Ww+n8+Z+dnFEwC0Jy/GX5SR48AwJjYzSymBqZRYJkUYID+zFK81N6aiZuVBl6FF78BuHmwMkaEHpi8A4RsvG/U0P2IhgriXXmZYRwUK7Hf4OMMGERm4NP4CLhYaYQKK0q3c+v6xVVVVaZjGMhM5GWOfNISICCQQKqNuLkM2LoOcUcuopXqFWDikwj9yuTmYhypg7PV0YKEAWFXFxWL++uGDk5PjQNz3qW13293u4uLZ2JkNtQ0E9QHKDA9r5AoiqqrK1MBFJsB7PM5D22sMKvQrkRBzdluv1zHGqqpyzuHGzB98Y/H3LvwjL37xB/Rix3Cdxcb3VNUGNVNx44GDKOjz+rJeYt2EZP/te4w3AH1Bict9PdOBbBv8Zk+R4QbyHEpdzggh56RqDgQECjw+9xg3N1ElQO5N05jZarXquq7dbrfbbd/3XdfFEPfrhi8QLgBMrU99SkmYQ4wAiJhIWDhIYGZiChI0KxGXGRXGxtncJk0DwFRjjCHvMbQ5MFRvCURleH/jZW7CIH4Ry/nAzKoO2s9hRcgcTiSF0B3KC8GZiCUME98btiY4oCkbW5nJAlBTU2h2lNV0p8KCe1GAUioSJRZ3dwYxxJyYLDkXtagxyAtlC/OUdNI0gaOqpX7HLCEIg1LOZdRSwAIxqbsC2+1Z6QFKrWUiBAoiBVKNbfj1cnRdt8fThenSrH2fCgVFlMXYhrYTzFzoSh+YMybKDg8iEsNut4V5Tbih9SmLMDpgUUfhxUrz14YVMRGEbSCkbNBWkJkWGdSet2ZiL3SZiI1jnr3/FpMMLkz77oTMjcf+dXwYL/m6hNQoH0cRlsIKdTakEyuKAScWrupJrCoOIe127iTCIsFMi3ncXXPu3ZkIQWII++RclqdEq7sbhrF9uTgGgp8lyB6Iskh1Q2u3x6s+zPjLve1ZmGGEnXKqqkqZ+j5VIWTVYDTGxIjlAMIYd180xl/z5sjX7V/u7lRaDYMMhBgAJyd2NSu6XRrrE0oCdHdA4TxycVZEA5AXLk9QOBXuxHwUBg+jpPK4sJ6Fggu8WMwAFsOUOKSM7I3DXTn1gZiZuxikoPxRvjr4GTsAoWsGaKzETCAyQ2HEzQEndi6q/DIHZZIoYGTNOXdQY5JxxQYcRMQsVMYdZjlr9i6Z2cF8MZ3GwooGVTW/Hs8UxcH/D1igF61UmJsvWu5mfADwQWzGRTNtDHfDF2LI3V31xVJWaI6h8Iyd9UAn3+BAxw/cAIEDIoCU+2SRXduae1EgAiDyruuIyCv5kWqacx5kdePQb3goMyIamizzwv2UmkTOPm6U4DGdAK5ZBxZ18AANLntywM1BRe2bNWuhOgCw8G63CxJCNmWHFR83c2diqsiuzbT/m4hAP9ISlR4IxgQZdMLjn+Zumu1aIjVgLXcvWvuBn3YuRQTAfty3t71T4S0Ujj1sw0g3j6mDy/wOzAIQIYgKU1X6TsfIN2diYrWklswix2o6revaXZ9nL0C5dJ0FBEYRHYv0kAN0SMIjRfSj1GXX9cLMws5Mzqq5SA4pvIC8zIZaFcM1Y8BEHINIICJ2FoSTwxN3H/uhYe7lbkpOCD82im746GCimz8d3QSQoScwG5TQZIWfL8MP3ZdYvoZ/XljBF6HROIEGAIahqGvdXwgX3IB/RMTCZaVEQsnhRuzuVazadmdmEoRAq9Xq6uqSWVaxmU4mk8kkMHc+bHPA2N/s12f/LWr6xZtkItXMFEczqGYtYsNSR4eOTfimvBsDzCN3JSJhmOp6vZ7P5y+/fO/4+CRg9Ppx+YvexXgvPR/WkenH1CFgyMYKgFC4Z4Lsa+O+zhEPnbPrkBYwMjrY5xDASUbB6Hj9Qq+YgRikMHIOIEgZ65chThFnu5liUasECLuEoQ4XNVZTQQDpNed+u9s9f/786dNn6/X6y3/rP9Sc+76XUEaag75tOpn4kM+GboEcMUb1XMjdooJ191KxKolEQ5ph4UpiMITARgVQ8IsuxSllZgYNalMmEhcGasiEY8g+IQk3sQQxARSC4AvE9vUijt3lzTeLxNJfJAKG1w04ABvoyzKj/JEe4uZrHx83/ZQIzPQjqKRw5DebXBaWIDHEcQrDwsXBsFwuDw4OJrMFgNdff/CNb3zz9PT2drv9H/+n/3W1Wl1dXQGYzmaz6VTG/LMfKBEzqGjoeRRosPsg4nFVIg5BiMjZiTmITCaTuommtku71PdmRVKjOQ+/tdtti16DhYPQZDqd1/PpdPra7ZeYqO/bZ8+eByQF76UapdvymQT46ONGAJLAzcuuT+ehLypRoWbGPSoyy+4lBZmhsAfwcea27yTdXftrtnRs0wbWhIgNyuB9qmHmOnQACNGyEQUiatED4CDEFEEsOs8aq+oEBthCMzRzjkQUQMKiltw9BcL5xXm2tm3tpTf/3t/5JTQAcPjGT/3pn37ng8dPP/3007btdrvdZrlZr9fTGU2nM5+kvu9Zvdt1c61EQmtctFRgEJubeiCHttVORDwaABO99+DgJ9946+TkeHbn7vHxSV7uPnr48Hvff/fzzz/frTZd1731ykshiPbJ3SeT6e3bt6vZZDabns5fTjmdP3/+wx9+WPqha9RfgklvThl8mLP5frg2ILpC0dCPZcK/EHwY+6398Gkfi/suYc/DMw1dkPtA4/qLNIG7SaiJKKBo5YiI4KP0pyi+3J04ay5R3adsqr3B1D744IN/9bv/83/6X/xnIvj6g/nbD37h+4/TH/7hH3700ScXF+crCk3TtN1Fymm3WplZIzHGyC5d11E127uX37ilGKOEoJzdjQWa82azjjF+8Pjp6enJQibz2exb3/rW22+/bX1aLBb3Fyd1XUM1pVx2cCa39Xp99unZbrc9O3v25MnjAIAc7CiT9heXQGlPN5a140KBO8jLXh12cs/DlH5gEwa5gbsPY1unQfsx7qUaFb/XzWwhQ5UdQBFBDEaCGcwQmIgHQkjcXR0Ac4hExCZEzNQxqMIODuo9EHnumZio5CtjoqaOnVnVhHpSPz1/+q9/719P7t7/+3//5xpBDRzfi1/99s9f6Z88fPbnm15PTm8f9CH1STS5W2qTmfdSrXJaiIIokJiZOBicJYuwkuXU9cjC3Fi3ff7s0+Xqg6778NlV13XB5fT09O23v3x8fEzZHn3w8I+ePQMQQ5zOpjHElNNm1203G91J13XrzXKzXocCYW/WCgCDDt1LzaF9DJX9XsNGxHFM+aNR4oNeeV9p9pcuqq5rD9BBOoy9TuhGv11aFhDIB1XVIN/xaxBH1yzG/rscwCBjM4AHgq60kiHUOWvZQR4tXVyc/6vf/d3z8/P/+D//h1PgAPipV6Df/vbl5eUPLs9Wq9W94ynN6KieTCfT5eWybVtPgYgqVEQUpTBeOY/8yCC7JNR1fTCpm6ZJ22692czmcyLy3p48efLk8dl8MT9eHKQ+PXt6VqR3RWlCRH02Zl5Ux8zCAhaRN778Ew4qc04ChtTquUjTSgPv5MYwmI5cdkEAmou0nBhGg0mGPrRYmIYNEe5wgjusBIcqfMByVHKYjvuEiIgpMgtEmIXJiUhdmUWYWCiDnOARDmcObohODIopm/okJyo9FImaOzEIRu5sGWrsIM/uUEVm23WffPTRk4cf+YNfvvtapUAG+AjNa2+tLundh098t+x693Yzq6eni+nJwaJLyT0fhumsqiv2yFBDzjlTUtUEy1lhWYgqh2ZPy3a7br2ToDLlyYRrztwt2/Zym3aZmIVj4HpST5vJgin6zrbLnTmqKk6mk9lsJq9/+WuOHRq/AAAgAElEQVRe6gP5fo08pxIeI95yI+SctYDjUpP2Mt89LB866hc0UNiPR4fiQETkCneDluapwFl1+HUbI1IkBqXKOSsRBQ6lYOWckxe3JWZuOEgIjTngTW6JOY67fIjGQkEGQN1jCJ2j73vjquu6Zr44Pz8/r+7ff/Wd+TECIMDJFLPZa8vl8vLzD7quu7p4tN1s59Pm9Nbp2bPL3W4XtLAS5u4pqblnykSMyCEEEco5591ms922V6u+77dtrus6tX3Oua6b6XQ2bSYxBGcIi0hw913b9n0P9cl0sjg4bOqmbqqqqn6shfYLrOP2TDUj0L6UExzkezJv/MBgEyYCDYTVYKEy5eFrC5kPQuFhgyORsIQQIOIDm1C4kZLnCFyEoWrICghL0QdEZsAqdQlxkpM7e9VkYhXOzMrWk2dSDQQ4i0SjmnhuUud8azI/AH33XKdhNv/pl48IO8CB+7dgt9/+9IPPVj2FvF6td9aev/P2W5MKq8unl6u+z31yTUXXBQd5ENltt2yObJ6NUoai4Xo2W0yn84PFPIbJdDKbxKqpqqquQozZLKWsRa3W5yqEe6d3Xn3pleliEWMU4SBybaEBPpf+brRQ6fzdPA+bCxn7PQ/XArXCUA0kyNhgkY/cbaF2iwZoUIMU7u0ma05UJLso07Vr5qegjzKTHQgrYlb3vmx4ztmStu0ur7YOPyQnIomRiKVM8wqqGCS/llOOIVZVRZCmmSxXm/li8f98vHr48GF8+WfvvRGnAIAFMD3B04erjz9+qJuny+Xy+eOHP/mTP/nmW288efLk88/OiUg1qWqRNCk0hNDnZGZ935mqQKuqOpwumkkDkpQSQRzotrvdbrfd7dpdq+6qyiEQk/YpSLh7686bb75xeu/ubDYr00d57Z2vwW1ff0fQCmIhZmI23m9xJqOC0kpNNLPsAxl/Y9o2zJgdjpSSu7sRSvC5sQsMwkFYULYfkIPcbZixwmEwK7NPOJnDEYSh0LatQ6yq6vzZ89Vm89L9+z/9U9/6yle/9trLD9w4912vtl6dWxWlFet9GFCJZrdkLQJLYAh51r7vvOv63YY09dtVqBfV9mJ2995XHryxnKMCBDDgw6f43g8/qmvXOBFcvfbW6//g7/z7kfW9R8vny6s+bdrUtl277bdImru+32ysS5yydemwmtaIkziPXF913XrbXvb9Tm236zq13rXLqU8JzF3bmXqUGKsqmOy2bSaPsZrOplLOkyjy3H0A4cXXDUhmL9SXL7z2Y8dh88n461/kym9c8JpWGJSYZWd4ofJp2NpS5KN1Xbe7lkx/9md+5hvf/vbbb7/90kuvHB4epHX/3rvv/eAv/uz733/3s7/6zvnF+enJ65PpJNmu6zqEzOXUg1FzE4TNlAjjJhoEkmfL5e/93u/N57O//Y//5pzQAgx8/esP3nv/K+uPdwDatTx79ixn/YVf+IX//fc/ePz4cRCeTiYw2m62JaBjZABViFm1KEzK7t2+7+u6Tr26ewjloIqhZueUclZAJUZh6VN/eXW1IyM6l0CqKq996R3iYSC5534smfugLza+rvWFLaMBmF0PAkqdulYHEXlhm4f5I6GocPZ0mzGcYCZUFNAQKtiNiFBUq4UyBbHBgxvUJ5E9p4rx8z/zt/7Bf/IPf/rBS9W8jgEwOTm9c3z/jeP7r9DJ8Ser3fHaJvWM2FOXCW0gIVKULR4MhSuZsmWxXFuONkl0KPnpxTNaPn3jK3/vS3coAS3QHGDnt55vLz67XJltMFm8cWf+1S//je9+8MPzi2enpwezxVSSB6ZpUwvTVCZNqOf1rAn1JDbTelpXVU7pPPUZCLGZTGep63Zdp+4GirGWEF2trptZNQkcANq1u+eX58vl6vLqYr1ey4N3vnad2cYRy3COAG52oC8wB0Rlk9rYb6LY8JpxGJT8dj3tLqS1jdK3spVjiBceAmdgHEbYbkNrRU0QYgrsVVXFOrRtu9ztqoMjCQe7nbZbnkwQqnoxP7z/8u2qqi7/6v2+T4YUghi6lJJTZipbIK0MVMtMHQwiquPppGnOw2S1Wl2G2dtfe7tpwMABML1Try66Dz74YIJNXdcL337z3/vaex+dff/771rullfLq+dXOeukmdRVdTBfhBCDSAhRyMvRD33fLzWnlFRdQrC+L0cihRDKoVXlDIcIUlXNqqq9ac6ZGTlnefCVr2FPJBdJL5Hm7IAV9Rm5jyCNHFRmjiitv5srcWn+aSQ8yyF6Q6UaU5/TYHIu1DGVbSrXfA0xM4aIHLd2uJOCCGEa4qRmTxIDU/uD97//8ccP7946+fI7Xzues9VQwucdVhb8ztHJWz/54b/9zqfLy3W/omlDuu1zngGRRNRYXQykrtQTeYpm7JUnpl1d19JenD15+vL0+KXXXz2tsAVqQZ7df3y+3OTOp4cnE3r5S+9szjb/9o//uFtfpXZHxPODeV3Vsa5zn1LO7K6mm/VmvdnkVsl4028r5kVVz6s6a0fkFTCpAnf98Xy2iFVFsNSTa5faXbuZzhfu1jQ1iOTBO1/bx8E+hsrZaAUSFOxG17EyzJrL+TojLS83gdnINHvZIwC/QUj7eIlB8TTQA8OxKzc29Q3WcmKRWPF0Oo3kzOzer9ebs/OLtm0n89NmepS03qxxuQMReIrZDNXji/V6vb56llUj+hhCEwqnTuNJLzB2ZlYBAEni7qlaCMuzJJ999plN7t66d6etkB13DzA7eaNdnW13u3tVunXr1r/77ns//OEHr7x87/69+2+//eV79+7HUO12u+16u9vt4F4O4aqqip1CjDng8PCwjvVsNi28SjklcBIrMxPmGKMwFwguIvV0pmZl96s8eOcrw8qXglBQciqHVxjIy2k0BXINh4KAvOQiFCFbUai6uno5/5DIACdkVS8sHoEplApT1oeYIE5MBmUeLkxcOKLrSAI5M+ZTrSNNQmZKwba1WLu5/OSH77pO5k0zOXpdFcsKmfF5xkpxcnrUHcwu15efr5cTeDU7qL1vu24RhN0JxjBhiLvDxLzyRNYTfBHtkOns3b/YPn38tTv3792/d7vChHByLBtvfvDDD6u+q6aHj7733tmTpw9eunMwm90+vTutm65PAA4PDucHi6ZZNNNZZNR1PQmTxWzRHB4dH55EYyRbrVauLuZC5ASO4eTw6M7du6+++frb73z55bdef/XN18k559zuOjcP5n5zLFeSEt84bWncQ3KtPhxYgxd+6yZyG/YrDuUKw1ZWBt/49bJl3gtow35CagNJMdazkaMTUc2FrGaiw8PD0EyePn36/vvv37p1K55+/e69WyEiJ5hhscA93Cem7Sfvf/bZZ5aMpYgRW55MiNgsE8h5v5fbTFlNU0qz6TT7ZDKZfv/7/+47f/In8uBLX/3ybAs0wKuvvnp6cjLr8sX5+XQ6Wy6X7733rqqd3nrcNI063bp1az6ZHxwcaO/M8vTTh1dXV7rOQcLx0SGAtNmlsr1eleB9nxaL+eHh0Ut37t69e/fozq17d+/ypF4ul2lnu7Z9/uyZmsnrb7/DCs/qydlJLJDSMKYd+ksqc8QyEyjNJYZYoP2xCfvXOLcubSzBIZC9kpVh7spRHJ5Mu5za3PWa2rzu8i5WkOiBW6Ct0TfRT2M+rnGa1pNuE7pl1W8n1k2gE8+N9mfPHl0+efjRxdmdO7PJmy/vcvpsu/rk8flWKrp1fJ78s17bCzzrI7fd9Pj+k3y2YlPbdJSqtCXvK25nwe/k/lhc6TLqpXE7CdsPPnp+0MR3vv1TBwfHOaYDksPPr/Sjjw/DtE7y+cfvQ/Pto4M7t06vri42y8tVe/n8/DHFftdfSbDkG7NOatQLnxxxnORY9RRo3V52XauWmuCnJwenh/UbD+69+vLd+SxKHZpJVROL23rz5NnZJ+v1GVMrr739Djmp6iAiGdZX90XjBqr2UVZ24wW4u9zYewYf2lUf9Dd7GfaIywuI13L8ojlUmJnBxFUM46EECCQhSM3MRNE6dx9pDFVVdTOzDvHJkyefLrMIV/cenN46sklDxNMQFwupXK4ur7qPH3dtN0urpmmSL4koWmbmhkDMxAYi3rRN02hTEbNVM3ff2sHnjx6lxfwrX/na0aIOwGGcPH50tt6sUs7i/emtW7NJ1fdpuVq3bZtczW21vNq1bbfr3bySwMRERkTJ8mq12qzavu+ZY9M0kyrMZrNbx8cnpycCWa3Wl5vtcrlcXiy32+3B4eyVV159+603X33tVXnw1pcLV82FAyUC3JH3nIwPA2jx60UfkNu+Gb3Z5g5U65D3nAgk7OU0tkLWwTmDDKYKd4KKlOEdKqEgLDC4CbsEOiJqROpuGUyDJ7ZcW6rcmpRrzXWYStedd/bo4Q91NnvnjddpMamELvJ2q06BWvb1x4/PVsvD5SpybHzdUIi2E/jUrRKaWd+4MXcczDkHZOQO7fLO9Nivnpw9P/vSndOTN1+tQwxrfPrw4ePPHrXrjXA/m07Wq/XV5VURwZtTFeqklvrc7rrdru03m6vLq+3VcnW12m7T8mK12+UglVCoQjWrm8VsHgNPmkZNn549/fjJZ0/OHp9fPb9Ynk9m0xBjjFJVtbw2Woi8aI7KWl13P14Eu0WhPcQV7YkGg9GLFioxNPRBN+a2e4zmbuyDEt/dOVAVK2a4exVLOHm5pAjPSsPSrhzODCIqZ+1qSubeoxKWTbM4e/r007Y/ODiQ4xN3X7ft1dWVmMYYw9ny/Pnz6eU5M0fZVjGy94BPCMwcoEQ0qYNq3qkSYFyFEMBHB4cHD6+2WTOfHNy6d6d9vPrww48++vjh2dMzov7q6urTTz6+urrq+lR2EZtZ27VlUVJK3WbTtq2lvFyt2q4TkaqezqazyWRa1818Uh0dHVeRAdput5vNZpcTEdV1HUI4Pz//8KMPnzx6tFyt5OW33mbAXOn6lBU3qA/paFjoMamVic71sK7sEiLikeB293JIiu2tMmCzYWwKMyNNcAVBmEQ4hqCWVTWyCLEIM0sVXEQOxJlss7lM5XRYR+3kamIUOUqoImEyPz5pmkePH3VnT47uv3xYVxfcXa0vdqnjJh5QPN+u6OJZDtzIjqMYb5S0YnPxGgry6EkIkQipb9QOY4htuj+v6jiJm9W6TV+6ez+pfvTwgyefPFpeXazacxCyZjD1DnWUM5dikIPFoqkqYQRCVcdJrFxVzY+Pjo4Wi6PDxaSq6iiLuq6C5Lzb7TbL7SrlHlFDQB2FyLoum9l2s9tudvLKG28PFb4MU8xAw47REUrRni/Yz/4HvaW5lxP2Bl3ZjfmqOWigDEb0XDAbyp6awrAGkSJGSJpTSpWwiMQoIYQ6clVVc/jg6UzCFCREd5HQVLUIr7tc13VfzUVkE+rnz589VXvw2mtLMVW1rMz85vRU1fyzT5fL5VS2LELYmVoDBxByhiMgE7Ez910XqwZEQeY558VLb8QYH/V9COHg8Nann3326JNHOevl+swdfdddXV6tt23JDaZ27/6d11597dbpadNM5tPJfL6YN9OT05OXX3nl5ZdffvDgjQcPHty5c3c+nx/M55OmIbKyCyJWVTlmFU6q5YgU6buubXfXmsdCTzLYzYfDZ3Bd/0viYuIRC7NDy1/k+42TBC/HdBTyAOzXGx/LGZhkZfZa9pBSMqNyEKWCnSVURELmxBDPAqJyTg2bwSVDTbNK5NgbAZKtq0mwWQbg9Xp6tmqff++vlu+8Y19/tRYJEjjvZHF8+trdZy8dfH72YRO1ijrRrKR5OO2sZ5aGPFlf9WFqcpzVU+Zm1/XdrN5aNNl1/IO/vDg43l08aVdPYNb2rr6DqYJAOVRNJRym9St3790+vVXXseu61O1yVsu5qqrJ/Kiq6+liNl3MKpkcHhynzdrMkqWqmU8p5ZR8ydu8IWVzF4L2mZ3JOaiN+yPNy4miX6j8LxwLtX8RE0aJ9Y977SHc4ARmcLh5KFvj4aq6V0UzcwyRhYkyAJEgzJaGc2BK3JbT/cpGYHefNE1JuSJyfHK83W2/9/mjv/juX7zzEy8DUlVV3/dt29Z1ffv27aZpqioxM8ZtA+WkXyZS1Zw1OFdVlVMqusYYYup7NUuZ+9Q/+vzz8+fPnz8/lyDNpKmqatpUVYwUaL5YTOvm9PTk/p17LEzku91us7pKKcE8SCii66urq+1mO20WdV1PQsg5V1Xl7ppTSkk1E7Fmyzm1va7Wq3IsW9jbZtChlzOtzAZQ527Drkl2c72JIMbTZMqhnxgTIspmsS8YdaheZkLUptbMPHAMEXAWCiRZMZ9VVay2q+ep24VpA7fdZj2bzxQSRBorp0u79plEymb5qqrqIi1c7m5Vs5+4NX/63f/3Gz/3N0+OT9KE+vXmae1ufqVdOJor9dmtSTGGagoys2mXRcRdRVCbB/EpTCS3diUsl2fvzheLN6ans/7xD9/N/aPHU/QVV2ly9OZbb80mcnp6Oj+qDg8P2TGbzXSrOaW+72fz5pXbtxeLhcS667q1Wl3Xd4+OYozPn12tN5t+3W23O0XlcCKEGLzdkkKAvrf5bC5c7Tbbvu/D4J4vbjjocgeAORQL8YCwsT87bmRFHXAXJyIZVZ82nsIEwEyHw3rGk/5gXg43izHuUp9ymk1nzGw5T5pmtVpVVXUwm7o7kI6OjubTSd/3l5eXQUJhgRXq7jknAEFi+a6iiC9usdluPvnkk9defTVNJtvtFsDBwcGDBw8+/PDDvMlmxi8qXvexTuX06GE3FolwzppTzprPzs4+Xm7PL86lnjVNc3j79mw6m9TDSa+qmlJWVd3qbDo1s81m0yc2sy5p13X10bGZP8vPAey2/dXV1eXZ5XK19OHoOe37frvbah703H3fly1NxUIM/OhuobEDJRTpDwvAw1amssv3OnM5yJkJZhhVU8P7KIVJtZz1XdgjdWZWy2pZAotIyl1VVVKRIYvw02dPHqfN/0fZm/VYlp1net+a1x7PFHNEzlMla6JIFilSlFoi1FbDsGEDhi/6wvZP8D/Qj3H/g4YBN7rdVotSmxIHkVViMWvIyjHGc+IMe95r9sWOyEqKlNveF4lEIE8GcNZe0/e97/MyymYpaeqSd61zNrYI8+AxwxhzigciIUYIAwYfJPHOe93WQog9HDGPul99Gd98XO3AKFBKWCREfnT7xq2769+cWm97wr3zGiwgFPthAfCMMUwDws5cAXWpAxcJ7m3f93VRFCYYgrvx9Gg6nfLpbsYT7+q+qAIKkmPnnfOYo6jv+2ZTV1VFKLads4DqutarEiGcM04p8Qjapr1cri8XC8xj5yz2Rkppe6SUI4RhhDADgWXgYLSj4Y3z859/fteG8fWrdyUU/T171XUj9ZpoMHxk6GlSOjTIhx9ijBEKfd/nW1Olkq7qvffrdbHZrEXfKaUe7h4564CzcOW9wpQgjLHTDq6X1itiC4/iKFqv189fPCcMkiTBBFtrMykfPnz08y/+ru26IWjIG0cIJZR6N6BqEEHXx6kreC1EedR3/fDE42g6mSTTXUoppsw52zRNCIEF1/e9c04IMeLTEELf9UopZAKlhMdJlmUdAGMsZxxjVNRV0zbOWh9C3zbGWBIsuiI+Omc9AKQy9s4P05d+/db/E9/vFSvjulEThoNY+D08o9/+1CCPHL59F3wYgD0Do3qAKgYAghkRymgAyPOUc952tXPm2YuvpJR/8O1v/sVf/MWtnWy1XH75q1/9+Md/DYYFSh344AN2HmHMgZAAAWGllLNAMJJgbFNzYzjAujbFy6dbe+NUUuOE73zj+9HWTI5Gy7rujRVCOIcJoYh4hAIJBBPswSKEjHcIIRKAYNJpsBY1AavAcMzyrYkXpDd6gokzDiyy1nXrZrMsje0RQtydJUkC2htrIs6Ih65VhBCcxBgTY7u+65flqiwKZQIioDsNAA6g6VSta2ttwMRZq9bD2UEBAB1Yer/39Ycrs9kg4cEIIbiGtr2ZNF/fcq/3nuDD7064YXgQQgPF0GjNOGeMWWuXy6X3Xumua7uDw73vf//7f/6nP3jn8eMRc/7O3fv7e2mafvI3P7fWmqoEgJjQYdcx3ksZw1VhkElCnHWtB4zJpijm8/n0+hBICPHWE4Jn0+lquQxtPYBjrsTiHjjnGBPvLELIO88YRYB9CG3bEEKllEmSlElKCA0IZVkmpTTWWsvbrmt1452XERVChA51XVsty67vd7dn48lEWbtarcyaTKZTonRZlRZcCEEppbUeBE7OqOFx1nmEGaOr1YpcyegCJQHe1sZf3TwJCd4P/vcr4SJ4BCg4GwZfcbjqTVxlaQWPAfy1NRkBBMBX+uw3Q3f9G7yDAEprRRlBYGvdjkaj9z58vL29/ec/+pODg4NRRHW3WBQNRkjk8qM/+e7f/qe/CxCIJMZYZBVCSFqMQwAfOGXY2aBaSXwIgdoaADixVfFSr47T3ay1iIEiAnnvR+NRnMSkIAwIDhQH2lFsgmchGKO96wmhAoBiwjRYazESXDDHEsa5oAg51YbaeBVYxxnP05E3gfSdRz5iTHIJKPRdr6gRGdvbTW/cmCIUz+fzVW0mUR5YUH2wqrDadcVKa80YwwEjh7zzJngTbAhgjOGpxAgh67q+p85a9DZp/Irh/taYIeTxVbPIeYfDtanzauoMk22A7H/9Kf9GSP3WHH2z+o3HYwBo+wYh9uj2w+9///v/9b/684/e+W4AXbrSNOvT0zPV933fI+sYY6PxaLlcDX3FocOPvffO912fpgl2uG0a565Y4gTjrXzctO2rV69u37ptE6m1yUVCKY3jRMrIXbeS37w8gzRnAEURyt58G4zRSMoOoO06SKOu6wprvHPTcGNnZ0cwHsUR4TnBhHK4osSHkCbpdDabzkZKKYQI5zySxBhDgFBKi3kxQBm01tZYhJHRgWAy5MYopYy1k3wCAM55zjiF4MATQAgCfuO1MF68UQ8QAhQhNMTNdLUP/kpVMviE0PDmpm+0WgNXlSADIRirQgjgHWNUCBZC8MGE4HtnGGN339t5/M7j979561vf+tatLAV4aeAiIlDTJc7WzqJGbbARru+md7fmapE6G3xwVR0IHiHmgh+F4NYrADzDOCKSUQxYYoROqygn2ZTfC/XYICJELKxECCXJQ+cuDX4+mk4O69845+5o55wdMwACmjGCSeQIgO9jAKCJ9tR0PNqOs+TYjAjG9OGdEMKE9869UmacjwWCQ6219xXy4e79/aZtUkcBYPHidFEUPJI7O7uCcdO386ZVSjnssSCop97ZYDzC2CqjXJcQiRDKeBKP47WuCcZBYusc9c6/ufmH65fLGPvGm2nx1c307V1qKMwN3RqA37K9DgaJQdIzqA+CB2dd68xQmWaMx3l0//79j374zQ8/+PDoVp6SNEAP4DhIBZ3Wpuv6pvFt04xZSkhI01RKSZt+aP4TSojDzukrX8PbVnrnjbOI5G3XnV9c7O8f0GgMAGWphRDOWs65zLI0zUhHQghSsqaph//kSjOOCEbYEw4Abecd8lJKKWWCYyGEiRPOGVVzznnCR0IIrQAAOM8559aZ9WrtkRBCRHE8cJYuLy8rEWmjL6vGGNPrjlBKCEmTxCnLKPMieOcwFlprbcJwLPTOD8QVGrwCRABhQCwEwAEAo4CG/cX5a8nV4NMcJk8A7+H3HL7fjB8CcGABICAfCEEIrDXeGM55nGZplj3+If3Ot2+/+42t0ahOiEqhx1ACZACXHkpClZAbHAno+xLWXdfJbYnHBJXaaR3jMhLRTvAddJG1MJwPMSbAKKEImLLqAcK1retXT9hOnG3fCn0was3TdMrbKX9t3Zy1TaQLxvk+w63H3nWEYKCUEBSFgDH0JABAaY03ylebdbGqSEsmk26O2xBGMVBKMddxFCnV9arsFUgZpjt5PNkey2w8GcdYLBYLp11ZlrbWTtcI9SFYQmkURSzPoygyveGce22884xwpVTdKGMscrbRjQ+IYEoxJhgRhJC/VsGga1fe//cn/LaaLng/wB2MtQwAQSCUckom0+nh4d54PPnoOzs3b92UUgIABuLAYzAAFoBYsN47ypiMJG+4aq/iLbuuC32f5/lUMs7ZBINsZWwtoZQA8t45PfxuKoSIUayUKstyfjGHakoJMbZDCG8Jked5xah1TkoZJ0mEqBCirhylFASjlEaBIYSAyBDCaJyUZVl3HWNUxCKJ4yzLvHeMaO9d3/ekput1sVgsAGA0GsmE3Lx5c8bjsqyarsnSFDzSWk94GsURyZO266p2E0IYwErgYLj3OO+GQLChP2SV1kx7oxFC1Bh9dZKGr/0OwOjXUt6vexDw+/hyVzXQN//kmvpzRfFFATAOXPLJ1uzunTs3b91K4jhOC0C6bRfOiYlMPcgC5iFcjNE2Akc15obQYLHXNnSMW8vaKOrzzM8m+IbFzpuRKdLIjpxmnAvEnbPBcOsGgAxl3Xxu5l43s0suyjAajSw+xxpHlb0r1/yIOGuO6tb5aqIVAExiTDD2IiKUEg/euzVm3ns+yhloT6J8e5uMbxAps519jHBsN2VZruryZHFxPr901u7t7Ixn2Xg2rtqyb2qM8fHpUiklSGStzcdxxNhslPCqsra5XF4WxjDGtLLOOa8NQkjwiBCinaeEcsbSmBNFvL/K8EIIIwj/xPfz//sZPm6dJxgTcnURwRgBAOc8jqI0TYUQUkqAIoTgveu6tuoCjrDz3mjtZQtXG6GxFvCgWWAQfBBCjEaj6Ww2c9pZOzHYWcfrgjLKgYVAgQoACMARwjWiWZZN/JQyZq1ljLEoQgjPMn7z1s1DhMqq5F9RY+xu10AIbd0QTCzjCKFg+EBJDD5QRvf3D9Lkdhwn5ySilFJKu7abJpHWxpar9WrVdW2e59PpLIri84sLztmdwxtRFL94et61HUtECKEoiqqqCtO2bWt1Xdd113Vaa0ZFCAGsp3hbw14AACAASURBVJQMfEzrgXMeJZRzjim21lI7lLF9GCjkVzOAD/LPwTL3dY3un3vcW8YH6g3CBHviQwCEMCY+aOd0b/q6qzvbJixu1hpUub+fxXHc9xpQz8AzFm/6OpJxLJBiOtcBc2bLrizLO6jDO/E0c6MxTNsyhLCDeq0NXpaYYOYwQgh7CQDGRwAAmuQjTX0nySX2/DZPom0bR1HclXkOVNVm/pK655nkoApwLs5ngINAAYI3yDqrrKXaaZVTkafJ9k7wQWniGGmCanyfLuu6qoJXW7NslEvnXLVeVOsF8ijP8zOPCSGjiN3cuxXz8eXl5V//6meLxaJ3HQBs5REBQ8EY11POEEYmYOs9ssZ5b4N1SFNLOOdSps5dhXAFuG4Z/BdrdP8vE2h43tiJryrfITjntTZDyDLnfPglnLMszSij2tQIIyYAAAaPACFSSgkelFLWuqqq9fqMc76T70RRLH2NMYqRR6gjkaSUxlgwxnCIAMBD4r2vul5KWZgRQohEMkmSyVTMZjNYLiCSUK2qqtoTIpISViswBkYSMAagYB0xV+Qa733X90VReJVTyi5UpLU+Ob/gjHflZd/3YjbZ3t7WWp+enC7OVwih9XL96OEjH5xS6sGth2maFMtquVohhHZ2dkTGhRAJheVq2TZtVVXWX0EAQwjOe2uMDdYaI0VCKUUIEUKo8fYqRwYQxogighByXv/OEGAAGLKk4Rq6+7sjBAABOyDBgwEEWjWARMCeRzxOqDb15eY1EXo70Iwl1nmEgqO8MT6AD12XEldWG4ZiQDpoVK2Wl89eLOcX76GGcz5FNhf5ZKoZYwyriQsVaxijvdk4QgJkAJBFsbcemXHf97zstNZZLw/YUcwTUAa8htbAGN95uAvPv4T+EvY8GN8fvySUYpwAQGNTixwVnDBqkUeSlMVSKfVyrpVSCyJDCFuxH41GTLHTV2Xfa4JxxCOE0O6dfQrMbeqd2eww4gkOum+itrr/8CDLstEo4ZyvTk44mD6WepR+9fKs7/uu90IIGSdd23EeL1fL09PXeZ5z2SVxQp37OhLkv/hcu03CPxmh6/njfQgEXAgDygtdN0CpECJJkjiOh5uv1qaqK0cbxnngCgD60IQQWt/nWa6Dr+umWcHnX3zxya/+UWv97XcOGWWMIkqZ5BHmDKAFa7P9PZByUBxAQ7qi0F0fQtCa9X1fll1ZlnVijo6O4nsJRBGEFIwFngEAzBNwDlQPSsntW+A9BAkAuc/7vkMd6pVqQ4sRctghhDjnjFHFEoTwOHEY46quu7a1NnDOCc4iKbXW1jomoanr5y+eJ3FCId7Z2fHJkIJpyqq8nM/brhtq2A8fPLDWmUDatms6kybp6cUpZ5wzAgBlWbZNS7++/fgAMISdIED262F5K7PubQrjNQkjAAAOBoK7pmXbQR6ECLmCilACGHmCiOQ054Yi50Vdu8b1nFksPUJXqMCtKPd8Jo3vqs0Xn559/uuX8xNljTmNq8l0WrIspXt4cghRBKSCrluXp955Q3wIYaNc4wDatGvbf1zpqur7Te8c3V/qp08vkA9RFM3GmSpLYo7ruka2I1SmVEEioOtAUMAcQgBFnYIAFDC3KAEA7+MQHPHgvJcgAcDlwXhfWWcQDj4o5Qm2nevjEKI4IoFTJBgE7F1E2zhOxB63zumuV2aTUt+0682yoZRsH0SSY+VZlFMpQ9u0GBAjZDTJ4yTuWtN3PR2ojxgN3K9/Qo/7nZUOo+tp9LYt0gOgN01xcl3/RghRSodUvq7r2rYNIVAy5HO6pjW2bxijJEaMMi69EKLv+7Is26b/8ssv/+EfvlgsFkmcWOeePn2apOmZNEmcHGyRLMsorUMIi/JMa90HawwEx0LwqJ20TfuySEej0eHBISaYo2a5XJ6ffn5yclJftH0P0EMUwQ8+gnfeiSB0UYRDVdFIgshgSNu8ptUMHaOBxGOsd9Z1ITjvNdUhBC0ZpQxTopTqTW2M3R/tQAvLtjLWHI72J5MJ855SEifJ0eFRliRN0/SrerNZr1dt0zQyn756+arWCCEkDFqv1lEknfNKKYwxJTyKI4o9xoQgQAR5AMDeA4Ahb917ri0pwzoHKEAYeHnozcqGvXqDdLmqjg/dICENIOdsZ+26bWdaE0gZlz0GZZQ3mjoqAIEQlOBAoko161VdH5988eX58swtLoyHwJhcXSb6RPX92pjFYMsIHjiHKAMuQBlIYtgabVHGcr6fJHGzJTuCO5ZKKaP6Qq0U91shnXhpsHVdedyH8Fpi2+817UtS0X8x3gcAqnOCSYtmPR+vbNbp7hin1jrlk4DChnggoD2zzjamCiH0CAlg3BPlA/LcBqcKqEwzb86FEN3m5d7e7jhDaZbNor3J0Q7KJ2MBEMd7RzuAE2AMcPTJ3/3dquiUUueXxSSLKbHe+/PNIgRHmMSYkO2Do4H3RIZqwnCneXuEfss7dKVWGHpGzrvBqg4DJsm7EDzFw4mODGtXuIaWWnBpmuZb4zRJgm6M1iEo55zzWggRRTyEICky2pw9f/7kyZP5cel9YDxHGEXeaq05R0kccaHTjMaRJwSMAwjQtsAFMMx8CBynGOMuEO+9M9Y5R1UVvMfBAACLYiGEZI4xLnnBuRiN2HgyOSQSAXhLlVJVi7q2LRTz3r122DpntEQI9QZTSh2mGGOHegBwFIUA4IJzzhuEEHJFV5YVAwUIrZevl8tLZxqEsac4+GDqCrRmgdRFcX58US0Wo3TMBW87HccxptJYc35xfnZ2hjkhmOSjsRCC4gDED5RdAAAchnvMWyP01j400EivV7nr2ml48y88ADg8MBQH4RUKIQAFhFDTd3XbaGu0tW1Tex8EA4BArcGkjxgOIZhevX79+tXztXMZzoTRysc7cRS9WjlNZBxhSqhHDcG4aQul1N7+VhzHYxe6riv9hDPe+W3SExDEGmOJGEcTG+Vt0zq7Yoy6nf2mbjZau2B315C77CBksY4Ni0PwoSVN2xQds04qOmKUHQ8oDoQJpjU1jBLrrXNWkMw650gPEBwYG7QzzhrDEKcckjgVQii/opKiHU73ZET5yYtXq9Vyd3dvjkttdFG7uqqCyLMsDSS0TQvEihiDJIb4virSJBWCIYQoxvhNmhzCCH+duPzPPm/2HnhzS2XEOwRXjtRB34O9c4N4hSBCCe1N33ZdXdeUEN9VGBMEGGMcnGnaduk7a42rm9Oz0+cvnldV5f2e9871Xd93eZ5rrSOBpJSYxc7aOOEykn1f13XNEen7jqI0iqJIRqPxqNKtY7R3RGvd+U4bPSTCDIq1pq7zPL+xfSPNUkG1934+n3ddqwvf971COefccE4JrRF477ELjHNnAyX06gxEqb1WLyml+r4DxZVS23GslOq6nhISJdF0MplMR5zzru0GC3hd1/PVRd/3Mp5leb5YLDab9dHhTWsNMH7j5o14Mnn16hWnWCnd27BaLtHjd9//3TFgTIRBKQeA3koUE0KEENwAGnqDmw7BhSF4iCKMrpOdLMbYIhdCiEcJ40wjl2WZnKbGmBv7O4SQSBApZRwxIURwSin1+ae/KYrC97YsS2+QUooQlsQJMi0AzERy8+bNdbUMPmDVxUnyVXGSpimzxhjDI0YIzSkbjUYf13FZlpmgGJPCGTLkZhK8bYIx9oaAO3fuZPspAGiJEEZqnS4Wi1t1o5W6mJPZ1oyK0Reff6FC6733YyFlxEYJQqgD03bdy89/tbOzk3jjndeSh+B9iLx3Myfqup7lOEnTG3e23nn0DgAuik2cstFohIlo23ZTBgBoDGubJslHeZ5v7e/evXN3enPPWVtolSQJR/HZ5vxX//CP/+Hf/3uyvbP7uyM0GFHDNcj1zTPkLCB01WIYqgYYk6vcQMBwhdByCFwI4IINIWBGCCYmOM45jbhzbrmYU0opQXXTlJtVUZbFZrVer09eHwfvm7KhlFo9kH6oc87pLoqiXMaMsfnioqqqcrWsyrJyfVmWQStj7Gq9bOrGqn65XNpsHwAmeSaE7L0L3jNGhBBjwp2zE07G4zGNSN00y3rTNM0o2U/TNG3aru9DSHzwSgetlHa9995QIIS0WnVdV+tutVrVm0uEUIyxMQZJESdJ0+qu6xJgl5eXsUBHh4eTaUoZNcbWTcM4btu219Zog0jEOUc0woQgjPM8j5JEad2bHhAKlBhjNPJpkt29fVdGEdnd20O/88BVqB4Mpp9hWbN2SFgeIiUCxojS4ZCBnfcAAQWHCeDggncYBre9IwCEEBSC8ZYRijDoTk0jwTFxSiEXEi6DcdWmaqvOKgceNY12DrwjnEcYS+vwiEEaxSJgo/TpYtn2plNgAt1g0XuuUd6jZOPjyseViVeKCxwyKaapSDjlviO2z6zeiQRv6lksiDVa9VGckIC16af5SBgf0yD7i2Jzumm6prk8r1XgyEtuMCIp5hHvkEIMRjs7s93t/+oP/+TD9/5gKx6p1qyLuilag/hoPKsr3dmwd7D/B9/9wXR362K10crtHdwoFiUO3CnwBmHgjFDKBIZQtZ1zvlO9NibP8v1b9yOeRDyRhJq6iUR89+btt5j1v7XVAAC8TQgd2NOUkjdEUf8WZ5FgMuxhVzDMawHqVdyNd0F7TVzbdQpZay1zFCEcRYJzzhirqmpQ/ID3xlhjTFmWFAkAyNKJUgpnhDFOEfHOD10lq6542JxzRijGJGHcWEMdsChSSsVxQgmNkzgQRyiNAqRpStzVzrHerC0NhweHO7s7URShhiKE0jR5+PDhDbdTbIpnC4cQ2r9zs6mbBiqE0ZYk4/FYjCbGmg/u3McYnyBECNlz6uzs7GTTZGn2P/33/3o8nkRExUk8v3wmpZxmo+3tbQFQ13Xfa4IRoUQbU9WqqevauPV6I5Lo9p07cZK8VZ4mhFLV9SKSv5UQ9fYztC2vEQcQ0JUrHIN3zgVnrxNYKBls3gjA2cEACQDDKQAjjDF2ATvjEAWPrqhjlOAYCLOoW5aWEdP3AjhldH5xuVwtX74+6bpuOt2Jo9jbcrVer3l0//5skuZVUxU2SdMkMN83jfXeaYQEI4gaY4xFjAlKo8dbCWNs7AhtPXQhDiKVyPU91a5tWt0i0+HyIkTIZJb6yIXMZ0l6++43H3zwAWzdPf7Zz1/+2//47Nmz9at5nueBdqbXtQdIdyb5zs7OYZ6Ozs7OqBR//KM//caf/UgtV//pZ5/s7e5++PhDwFDMXy8WixYoSseGy89en7YXGx+CoJhQr+ulscZjTjDuyno0Ht06uPPw5oME5Oarl2VTE4wnWzPnfBxH4AL9XZAPAAy3mfBW4QCuyr3OWg8AjPEkYSEEpYyz7srFBxCuUxrxVTj2kFExoAGu5SjW1rVRSg0NJBkJo3Vd1wgjCHg2nX37o+/mec5YzDn/+Jef7DbN44ePnXOri0XXdVfNTUBCiNp2lFJrnbXOeKu1loSlWfre++8STJYXZ8WmIJwgTJRqur4TjfXeSRkLwTHn8/n8fKOPjo7yaFwUxZohW5Y06Wez6Xvvvae1fv7VE6111S2atkmOdg4ODpRS8/l8bbAxpm7qs9Oz+6u12Nr+4R/9UZInABCaUJZlCGE6m2mjq3VRVVW9WQsheBL3XV/WTdu1DlFKKGFRJCPOed/3i8UlwkhbM5/PP/71P0opsywDgN+/yg0KEI/Ae2+twxhRSgcsn1LKGoMwwQFCAAIBE9TjAAA2QBh+HMAAYAwYAiAYQkMZ5hRRZw0O1PR9XTTeO8Y5RqHtuhBCFEV9396+fetHP/zBbDoriqrt2vX5cZre/B/+5/9VSvnV55/9u3/3fzx58hvnLKPBeTeiiDOMvTPGhKA9cXs5uX84vr0XhCDCIBkcj5g1tlQdY366t8M5J2FaVdWrebUsikALxFkT6xDCVkeS5KL8csk5f+9PPvz2v/xuvTirm+bs8yc/+clPLlbzzVdfhdNNHMd/k4imrhfnm9Fo9IuTl0mSHt6+ffvWrfcevauDVsG9Pj8LoeEyFanyJNSVYWkSCKs2m5P5+Xw+73vtnb999x2tdVF1z5890y5ghBjnSqm+b6fTyWiUbW1tkd29/d8dIcb4sBENdbaryDbvOaWEkGGaWGv7rhs6mJ4iQgglQ3rZNWIRIQhwfY4AwhgXYjDxua4BAM45pWxIk3fed10H4PteaaX6rudclEW5XC5PTk6qHp2cHJ+dnCyXSwAPgMAbjDEX1DoXCy6EUKqLovje3TuHR0dbGdLaUESzNEUEI4zSUSKEONg+uHP3DsXZq1evnr44fv78+fHZc2vNZb06Pz/LNJVSbPq+LEs8St+5/87uzruHh3ce3d4BgKqrV8vV8+P5YjF/+eLZV8+eoUCbpnl1csEYI5St1usf/9VfX15etmV1enoKYB4+ePjgwd2t7a2m7JI4SeNEShlHcjabHR4c3bl7l/NISjmbbR/duHFwcJhmGWNUykipnjFqrBZCovc++PDNOvamKsoYo5RgyhFCQog4jpMoHo1Go9Go7/vzs7OmbUMIWuuyLPu+j6Yj7z14670f4t84YZxz8OCsG6KsCMdDZxcTfHFxQijhjMtIjvN4MpnGkgPA8uJ4a2vmrfLePX7nflmWziiEsFHCO7+9u/Pw0cOiWJ+cnDx9+vTi4sLq3lp37/5tSigXYn9vr9MqhJDIE0ZpRGMAAIabpl4Uc4zJn//ov3306J2bO+86Zz97ffHZkycvT58YYz7+/PjJkyc34oPvfe+70zt7QojZwx2Cib48ybLsOzfvSRldnK4//fWnXz0967v+xeXTsix5liVJOpsd3rx1a3dvJqV88fy5EGIa7/d9F0fy7r17+ZgDwOaiFELo3gkh7r73GHD8T+dE3wMVgJFfrj///POmqZq26brma/8QusrOG45tV41RD5ZSijHmnEdRJKVECI3H4/F4PFSpCaWLxeLTTz+tnXbOwXU4OUKIUMI5071BGF2FofshY9MRP/BXGec8juI8zyfjcZbGCCFJ/dHRUfB6vVoJIaIoqo0SQhzt32GMTmaz7e3t5ery/Py8LEvKmORss9kUm+Kb3/zmo3feGY/Hy/X67Oz09NUnAJDJ0WKxkJl88ODB9uHW1myLELpaLlO6nE5n77777vsf/AFAG0AbyJ88fTINoxt37zah+eyzz077C2PNarky2pyy+NHDh3e/+e27Dx5s5t2mKH766f/9+eefHS8WQzg6utYZpllGMKGEcMYB4Pz8rKjQ4cHh3bt3ZRzDwH+sCvCF026xWPAoGY9GWCTeGJxxaPtPPvnkF7/4xc1bRwf7B86P67qi14sZfqPjGUzxzllw1lsy0LiD833fU0KyLNvd3pnOZsaYtm0RQmma1oszDuAQRsF7cMM2hjEBMAghipD3Hlnvg0EUeeQxE5hzwgRhw5+CUYoQctaFEAjxSjcX5y8QQtpWGScJ7der9eXy+cV53laNwD0iCpzJqFRg63LFGRrFAmzPOGjTTnfeTdN0Osone2tnq1u3H+/u7603m2fPjz/+5PPdrZdJklgk4yQZp1GaJHf3D+7FLD24CRAl0FHfmXntnBv7WM3bs/bpiNGb2U1IDsa7Yiw2BHdH462nx89WqzWN45QH0FWnK0GCMcqT0XiSb29vJ0lifI+IWK4WYRkYZk3TLpeXGGPO5GKxKIpCa02YyPN8trMLAJ8/e/LVyTONeodtLIXzjuztH6JrY8JbSmCCMRluple2YYwZpcNfrgynGCOMtDFt226KtRBX4ZSYEIwRxQwQDN84DphQghBgjK+q3RQIJddNWO+8U11b1bW3KoSgddt1vepKKaPJdDSeTJp1t1qtWt2rXg2Rv8Z7BAg7DwiNt6aUsvVqtVquLi4vy6qMJPvwgw/39/cIIWki4ji2zhVFcXJ6dnZ+9vzp85cvX66Kumvby/nF8fHx559++uz5s76uaKgr1TZNw2QUx7Fraq31zb3Z3Xt3aYfs8gLX0NXVursghCSjNIkTIiRCyDqtldbW9L1CQTDGGWMAyDpdbDYvnj7ru66u6q5rMcZxnIzGk9t3bh8eHWV5bqzdbDaboojj+OaNo9ls6+bRYZwkTVWenZ3Rt5vZb+S1GKMhIkhrPfxkSLycjSeCcUqocy6OY865sw4f3ag2a+ts2/fOOUoxpnTIj8XBO3+lW0UIM8aG8SCAwQdrjemVUbqtFSHBWRt8f+TQwwdHk+29ly+erOo2mY5q42orXLLrsFWYNCgOPtB8C1mMbL29N7v76J5SqmmbENDzs1eXl5cHo6MEvZajbLFYTDIpSLJaGowmf/wvvtG07f/5H/73X/z8F9S+vnnjxje2j+I4ZrkaZ6yqzv/z33421y5JktnsHsY4eAqBt0o/f/l6fv6ptXYveViW5Qv9hTU2Y6mUMuGsaZpOFwihy01hrT03ZZqmW+kIE4w4wRi1l2WX5zKJjdbK+sHNSSi5d/feg4cPH3/0fbte/PKXH5+fn587uLy8jCIRRdE4jx88evT1aRtdywqGUveAhiMEE8I450IISohzrus6QgljDACcd0KIO3furNaXy8tl1TRd12LBhRDXVburUffXVh4YePcEBX+VxTRkFGGw1tpRLubzOYJWyujy8hwjFCdcKeX1NEnT1vV1XX9yen58fJyMU2vtUZTd+OCD8Xjc9/15VW42myROClZ0Xeedu7y8PDk5gd0JY9S48ODBg3ffezfPc0rsarX69c8++1KpG3K0s7PDInJ2dr46OWubJoxmWZatVwEAdmIaJ/HJyaunT59KPj46OmKUUUL6rl+tlkXYxHGMpHTOBTDDkuO932w2cZLs7O7UdT1fXwKAa3sfAm7qtmlbpTjjCKO+658/f3F+fv7Bhx84646Pj3/605/NF2sZySxLbty4sb/7jbt375C9/YOvy3FXhkXUKeWC54xGcZQmKcaob5uuaZzRdVVWVWm1KovV4uJc9XWaRJGIjdYhBEYowogQDBi54L13V1RUPFC1IDjnrKOMEEDgAwpAEGWEYUR8QJTxodmy2tRMiiSfJqM8YLqpuA003t29+eCd9z/49p2H30h3djed7jf9eGuv1LbszOWy8Jh/+Ed//I1vfvT+weNROqsRM55APNk6uDe9+diJ8SdfPil6f+/WnT/64Z/96Q/+7N1vvH8w2uo69Q8nXx6v1pdLtNroYD0JZITB1YVdndpqXa0uTNuk06PxZIZpKrPURkoZQze1rmukIaMikWOOpHeIBNZW7e7W1v3bN8G7YrneLJbFqpRcRFEcyziOo7Zpq1UpKL9z8+b733h3Z2tWFZvVahNJub17OBqNO913vT45OT6/mH8dlxiubXUYo6t0SoyklJSQplFDHFVVVX3fx3GSJqn3WCnVdbRtGykTzjklVErpDQohWO+GU7t1dog/o9cp4OgKswlX5F5KCaGAPA0BABhnlCJj2lu37u3v70cxQQi9Zm65XFJC4yj63kd/+PDhwxfnr3/205+qV+ebzaboq7brkiTZms26vnfe+1IXRTG6fbS9vT3d2X7v/fc6i5589uSLLz5/+fIF/8Nv/eF3//T2re98szgh62qz2fyr3f9mtn/kO/Hy5YvlZvHi5Qu9Kbx3HHFnHcHYOt82zWKxqDCK49gyOywMSikHvYwkODvs30KISMrhmzw4OIii5Pmz58GiJE1FJBFCvVZFUUgpd/f2jo6Otra26Pbe0fbR0fsfgdfQudVq+Vd//X998eWXn/3mk5//4ufo4fsfTidTrfV8Pp/OprPZZLFYEGvTNMXDpuEh+MApxQjdvHWj7ztC8Wg0Ms5tNmshWJ7nWZYZY4r1Zj6fD2YPwAwhFIA2bWOCxwQHZJM01a4LIXAmpZSDy7fV9Xq1ruo1Y3RnZzdJE9ObOE5ymSKMsMeE0pyXs+l0NJoJIXKZbW9vj6Pd5WrpLS6rsrw8a9uOtIXW+pvf2nvnnXdmBM/n8zCbaa2Zja2zamMAwETtx598cv/Rjfc/eP/Zyevzs/Pd7Qdd1+1++y8eP/wAmtdQFPD8JQDA7RkY+/d/92/Lsrxcntd1vT27tbW11Sd3p9Pp05e/buq6O9VFUZjsxmxri8jEhwDEKaWK5dm3vvWt9959NBqNdVt/+cWXxcVF27Sdsc7Zoq7atiWE5XkesSjNsqPD24eHhyGEly9frItie3s7kJClmUMmhEA559ZZQsnOzk6e50kc0b094pzWmiBc1zVC+OjG0c5slmYZxoFxzjlllPVGZ1l6uVycnp0lRaG1TuNkPB4P7lTrwVpjbOCcg3cIIRs8wRgcGGPG42nwwTtnnWOU3b5zO0keIYSss03dKKfathGYDWXsrutS4qSUVVVfXi7bdGyMsSMCAE3bbDZF33aUEqX1arV89UrHcZwe7KdpsrKm7/u+c5SxGzduMMaOqxf37t5dLE7/zf/2b5ZNOZvNqgJdXl7mZlQUBT9/VlVVNF8wym62hwihqqoYo9vb2zs7O4JNQgjL5XI+ny/WpyEE3yOtdV1VCCGWWsaYAz0cg42xm80mhMAR4pzneb5aLtdlpbWuu7ZtuxBQXTfjbNx23fnZ5U9+8pOyLMuy3Ds82Nvf/+gPv0OyCQCArSlF2GmztbV1eLjPOSeEpGl6efqaUlqsNmksuYgIJcbqvm9V10ynU+SJDm2e50eP3zHu3nw+b/pWCAE+9H1flGVVV1XdKdv31iKEKAPGqIOAsAugBiBU8AGAEkJ29nffe++9e/fvcMZfvXjx1VdfvXrxuqlrElgicuSR5P5g1xCwVbFsuw4QC4wZs7HWPn91XlUVdS6Ko4mYTG5sWYI/e9Gfn/9VmmUsu7O3u0tYbq1b9YC1y7f2aJS7i/50dSZM5FzoNhipdPm8/PjyN7I6M8YmrmaMhiz2IVzO+9FoRFNJKFsovl6vF02plAqECSGo8Ngj5FnbawqtlLLrKwDou/ryciUkq5puMpnQJBsRi+s7qAAAGL5JREFU0ZSNG9KlEMVAKKFpmty5c39vd3e9Kb/66ivSkNu3b7///vvvPHiIA1Snx02zOb+4oA8ePPTeSSnH4zHCyBpLKDk4OGiadpTlGGNEmFJqtbjcbNaLi/Msy676lePxZDPNx5kQIhuP0jTBAcqyJIwBAKZcRrLtLCa46RtGacAMIeSQfPtwzxhDCC0Wi161URQxQre3t4MD7/xsNI2kLFZlURQX58dKqVZphJBHqxCCwnSYXggjQUWapKOERVLi0Djv6rrWWjOdI4RcXRBKgl1SQjOF2q7jjO/t76n+rCgKh5ZFsXFmdH5+lus1AGxRG0Kwvun7rjSLrutAAqVs1VGtNYoSKaUJbsA6RFFkfaSU6vs+hDAAVQFgqIeVZblYLOq6ngEGgPF4EoIn6/WAfoii2Bqz3mwo4bdv3f7Ot7cfPHiYZelyufr4xx/P5/Om2cRJTD/69h8QQBcXF23XDsqppnTFZokQikVEKQmubZpmubioqopTspifS8b39va6tm6qIt2k29vb1mkUXG+0UkpE/NbdWwGTvu/3Dg7bpn32/Olqta77gjOe5zNjLEDUdW3be2N823THx6cIhziKZ5OJ4GKST4IP5ao8Lo+RQT6ExhcYY05TbbTXhJN4Mt4+PDzc3ixevX6NdCXSoMNqtWy8N6PRyMBWRCKhs3rhiUVbW1MkZWvts6cvKGNJzjXaEVNhRGO7LQIJmNpp3YXaWWcC8t7Xp6qqqt3xdtuhljPKWEkJQqnECSWkq53WxlhPGTOI6ICtc8b13nQIISGpNb5qWud8QFDXtYiSKIqN7Y0xyAdGiLa2qqrFYoExzrLRvXv33n33cXbjlltePvns05cvn88vLpy3cRzR5y+ej9KsqqrL5WXf9VTQKI5w8GmaLuaLxWKh2lZrE0kZSTkd50dHR4f7+/fv30cUPXv27PTi5Pj4eDybbjabOE3SNKWCU0JcQHEUPXr4SCnVtNXl5WXf9XCV0u0JAc65C4EzzgVjjFGKnXcDzQNbZKwpL4uyLBlwxthkmjhnOeaMsSRNoiher9er1ar1ylm7urggl5e7Y6aUatvKWnfv0dHh4aHpE2sdD6mU0gQ8xKpbYxaLRVmWmLLhZTfG9toYY6zvQgjOeExw542zrixLZ62KozRNIU0Iwd45C2CNVUpRTAFgyHcAAOss8sEHz1hknW0ap7WmnHZdh5O869pWtdY570KWZR7Ae++c3RRF16koin7847/h/O+btrk4v6jqYr3ZYBw453R1fm6SGiFk2n61WHjk8zzHLPSqzbKEkG2C8P7+/jQb5Xl+enycpdl0nFOMvDWTLAW3a531yHPOxmmS59lArTIuIIS+fPIbhJFRzTiPR5PDyXjirXbep+lMStkZaLuubSutdXC2U0ZQwAhBCJLyeGuWRRJMYIxm29lqvQo+29ndvbV/azQa95fL84uLx/duSRn9/c8XH//qV593lwAQj8SW3tIgjBvtTlLnAKKss75Svu3AKVmWZauavjfJ/jTJYyVlcX6u1bK3fYd6SklAPI4iqgORMZTIKuW179uu0TaOYtzMB3o59t4iggMhQAEjhJExVkjqvZcidjY4cM56QjwBtCwKxrn32DlvrmmZztnpdDYajcbjyd7+XlmWX/7mN0VROOed05TiKJajcUK/fPo0T1JCSFO3xto4i5Ikvvvg9vb2tqCMEJIlKUaoq5r1etU0Tdd2WnWyKPq+7fvegeecM8qklEqpqqrkYHAARBC6XF4KIfYPDh48eLh7sDWbzebnp2VZnl2su7Yb0D5xnERR3FRFWZbeexEJSol1lkkupcQOee8wreMoqgobx/F7770/Go1cUa43m+//4CNxcOPu/d2D/f0vnv36gw8+uPPo5i9/+csvniw/+eTjUfTSWgswnk6nFvHL5TLGSghBJd7fP6CTvCzLi4sihBBJSQlteoUxAYSd93XdCCGYZdZaT0hd67XzfuLjOJNSmhAwwkMKLSaYMioo01rHfLjheecdWIcJkVISQttNifreOae1NlYBQJ7lcRzduHGDc37v3r3bjx7qqvrpT3/2y1/+cj6fG2sRQsKz9XpND7anBEicJKd9t7yY1yVVdX3n/o04ls67si7PT0+cs+VqU5UlBSSlpJMsiQQKjiAkJUcIiSTSxlBKwQWBifMeucAYyinb3dq59eBwNtsKWFvnZtPU2ZYLWK42ndLOeckJQGDUzKZRngmMQr+p2q5jgfgQgnIAoH3X9f3R7XdQRP/z3/7H0WgkmnKz2Yy5vXXrJAb+r/+7/1Hm/0t6+zboMou2b2dfvnz56od//L1Hjx794lenFxcXUk7q7akuXlZVfefm0fb29i9PT23fEVs4bbyT3iCKdp0NnoSuMRJz58kkpTznZbVyphtRIgzguqI4RyTm4ILIZBILmcdxQhlvu86rdrVed40WQozzOE4S4r31sDRBqV4bhRCSTCCECOa3bt7f2poxSuu6Pn/5ilK0s7v1ve991Pdd0ZRnp6fO+7Zp6F/+5V9+9eWzKIriKPrs888vV0vr3M7NnZ2dnfVm3bXd8cnx2empIAwAgja7u3v/T1Nn1mTHVdjxs/bpve9+Z+5opNGGJCQbMDgxVGyTopwUJCGpPPGQZ/h2eaCSByplChLnAWw5GAtsaWSNZjRzt7739r6cPlseriD5EOec7v/y+3POq7Lc+9YA6KoqN1my73gGQSCE3O62UqiuE7vdzvP8OI4vLy816jzXa0UrpDg6OnJdV0FSFGWebpMkNcaEYeg6zma74TXXStdlWTeNSx3f8/I8r5vmG48GCOPPfvNpWZZDqD3fe+ub3/r08afbNAnD8J13v2vW622bDAbD+39zkzFm3z4BgHwbH+52uyCc5nmeLgZCyOnME113BMHx8XE6yvI8jy+TPM8bIQEA/59yWFX13kihlqWgAQBQQvedDkopsB3HtjGhYD9h+rpbaCENLcvChCCECIDmNfQBQQgxQn8yzyxCMOe8qZuWV2dnLxijrudNp9Pbt7+DeuHLJ5//6le/4pwTo0QY2L0oOjm5NRkPpdaE4Kt8vVots9122O+//fY3q+prrsWaur54eT4ej4GQRZlHUWRZpGkq13MszTBGUmsA9ncoVNIAoKbT0W4Xf/Xqi6qqp8fDm7duHV6b9qIIIKv+Q7rerKWQCAvbBdCglpdNniOMCNJ1UyOlXUqhFLJtoI3DsOf4LE1Twsj18bEtgRDyydkFRmi7WkqlwsFUSvXF5ZxSOmzhd97+zkCd5nm+K4Bl0SZbX748Wzz9AwBgl/eKovhjuulFkce54e140vcCO05009SdlFJJYUwnjBYAY2ATCpklTYeNhaBvFAOYWIxh16WWBRE1ECAtbAILxTFUhEDXoT3LsbClZSc7hbTBBlCDMcQMUUaZSxlSZnk1RxhjC9VVvVzlbdt6QZAV+f2H9y3HphZpmpL8/Oc/11L1+/2Li0ul1L4zHLdJkuyWl3MpxGQ0fPDgQWA7q/X65s2bhBBRt2GIJpMpAGCXGARhXlVSSqEUoYQxxhjrOun5/j41DBK92WzOLyqlNWXoYDplbnBwcHB2/ur09BQiM+j3jTFZlvGidT1X1yLPc0tT23YoJhAipXW+263XayEFJQRjYjph2/bp6annug4lo+EwTdKnz55+ebW0Hfsa9Hr93vZ3L06fP9c47PcHkTdsmjpZLLRWnsyU1utkvd1sDhnzPM9xLAhh0UjOOQBSa/0a8WU0AEgpBRHcp6O7rtNKCwohhMzWlmVBRLU2e33MopYQQimhlUYIUcsyCAgh94ixvfiplJZSCSnLqsrzvBNdf9jvD/r9QbSYLy5evVouFxdXF0dHR/sMNjkaD1Snt9vtL7/442azsR3v9u3b7/7DD+7evduPomSXLOeXddN4tjM7nsWX8/l8gWxMCOFtQQllBBdFAaCmBGMLYwS7rkMYt6K1lEUIuXFy/bZ7A1G4SOeGgBfnL5M8u358C2Hk+x6lJE8T0fLADQ7Gk4Y12+0GtGbYG8Fad6KzGGOETYj3YvfixadnnudyjZtdIaV58OBkFPbyPC+L/PjoFu5NoyPptWS1WmVmAeZfIZQXNnWolSluujaIIrQc8ba5yrRtO4JFmyzrtY3hZsOEVirhjMNOYy2wpsBCCDXYQhhDKRDCxIIC4VoBCimplTEAOdwYxRAy0AitpJKWTTRgSpI9qtaitAMAII4QgcBAJIw20ggphZCcc85FLaSQpmuayvYcajM38KSQFxcXjLHJwRQRTH70o7/rBb2qrj77/PMnT54sVjEmJIqimzfuAUB6vWs3bz2QXUYsW/N2t1ifnb3Yxus0Tau8aGUrlYQQ2sxGEO7SNAh827EpoXXbLJfLve83mvWLoiiLknMOwH7Xd3vnzp0PPvjgpz/9WbKNP/roo09+88mrV6+KXV5VVcSirutIhwAAoINt07YEGGOKslBKAoq0Vr3e8NGjR+++/9ePHz9+8vgxRJBQcv/+/Wh6dPbyrE4X8Wbj2K3v+xZyKKUWtpqmqerKGFPXDedcWkIK0RiljUnLUmvdwt6fUxsQAIQxxQxhDPc1RQwA2OfSzZ+xrUIImwKEEMFEU80sYlkWRpgxZqM95VdrYwghSiktAcJIK62Vbto6TVMuas75dDbZbjZ5VY1Gw+nh4WQysRhhjEVReOvWLWIZc3n2wg+CD77//g9/8i8AAJAl5+nlq1fPzs/OsiybDEdKqf2q9yAMe73QtiilFEoZb+KyrnzfJ5Rggj3HoZjs4virr756+vzZ/m08ffrlt7/zrfsnd//+3g/Pzs4++Z9P+m7vm994azY72tu414Z3//kfD976xtvn5y9fnZ5TSpJF9vHHH8/nV4SQ0AJhGAJJAmdIwtDz/ZzXXSdoMGyMpT3iTiLt4bP1pVDyYHowmU38nvtiqdPTZ1shfCytNraM1XTderUWnQIAVMQSrTC6BR1XUgFECqiVlp2pAACewRgaqFrdARZZGBsIHACA4I0xWlMkgDyE1IPUEdxuic06xlhrADWQ2hYAAOF90hYYoxVB2GEGEwG6zmgEICEAEYQwrstGAzMYj/7ye9+1LOu3v/2Ycw6Elo1QvFOWbPJyt9qSzXZTlU1V11x0dzGBiCzmV7/54nFVlaEf2LZd13WSJE1VaaVPrh0prV1m+76nBn1CcM1bx3GuXT+Oomi53mRZhi16cvPkaw/uHR8fP3r0BsKIYOh63uTao7f/cj05HHueT13bGLNvrWYq2W62FNP33n2PvX/Am6unn52GYfgJ+/jZs2e7JEnT1B0fhmEILMu27VJwjFUcb/bFHaVfR/5Xq1Vd1Wyz45wn3cayrJaXm80GFjWldMigkMJoqLTutBBSIEt3XVc2rdK6oVBKpRDaa8cIISiUMdrzfQAAAgwAoARXSmOMpRCO43iuS+ifUHuvzWgGyWubDUK4pyUZBIUQmPyfl62NsSyLMQoAuHf/ru/5Dx8+NMbEcbzZbPI8v7qac95MppM7d24hCMkXv/+974VRL7o43eabDWY2IeR7tx6WZVW3ZdO2OmtIwVErLIxFyauy3Glh27ZtO/ceHO8bTEVRjEajw8NrnufRwRhAuid5AwCAKtKLl/k2A/456PW//+13yqIoSr5aLYHRgWMR4myX26QuY55NjgOLjt985+jNd77/k5+JX/ziF//16w8fP35ssKssxx9OoGV1dZEWzWRg1bK5fP5St7zney/PzhzPK9OqWpy5rsPaCjQ1yDoGEXEnjLFKlmm7s1qx37XBQihBxogaR2Rd6RgopdTCUEotWzqOE0ZOGIaF6jjndmjXVV3U6fTg4PBg0jRNnK8KJfrCtaBUeey57n6omEBrD5BFlGCMoyisGo4BXGpOiFESAGBE21gYKaVD3+33otFoqLgAAHzt5m0b02dfPBN1Izs18If9YAwhJMvlcjIGtmMjjLbbrRtGURT5nu97/qtFN58vqroimOx/SrIsk0JoqD3f6/V7g+HA8xyE0Pj6dVPXSVYopahSABkAOlAU6W7DGIMISiUXy2WvaThvtrttvEnzPFeS1E1DsRPHcVG1XSdezudRFB3dPnEcpzPq3b9694d/+4PFYhlf5FVZJVp0XXd6/uzFV1+Fnu06Ttu2g0H/L95+ezqZFHX19MuncRwfHh54GDPGGFMAAEQJJrjjuus6e9/gfK2pE4yQakHdNF0tAAAEMcaY0aYsSqMgAAD7ge/7BiHHcd5///333nsPQvPhL39Z8fTPLxalZE9uBQAYAGzHdihljEmpu66TQtR17ft+0zT71XPLQ4QQhKHrOLtkhzAKPH86nXquSykN3FAquVrGjm1nWWaMIck2pggjoP0o7LqOunaep3MElFRX86vF1VWSZQij0XistJ5MJv3BAFvIth0AwGe/+2yxvJpOp9/97vc8z8UaEAPkepdl2Z4Kvl6v66qOep7ne3ndNlkFjV4t5ovVFgAgBUiW695gOB6Pj2ZTgolQhgGxvTpv6jrexRDCN958eNALg3CQZlnEW8bY/Yc3q7pCSrVty3dx7+jIENP2w1s3DgOGQwfPDmdAmjRJNao60XEDuEEKM4lsQEgnOlkWSinbtpnrKowcSqCEbdsWopRCcs93HBfYPej2DHWpbWvqy7ZdF/zD//54Ey/OXpxNDnpSqQ5gjEja1owxz3akbIlDMcUQGQA0eL2NoIEWpy9ON5uN59i+7x1MRvvQtTamyisCiWe5tuVMJ5Ob128ez67bjr2Yz40xfhQyxsi9e/c912/bNo5jznkjJCHk/OxlEPhKqtFwdPfePWpRPwikUnvpYb1bz6/m2phkt2vbFgBwcXEOAJBcTiZTRpyyLI3WeZ7P5/O6rgEcO67TdTzLMiX41dXVNimaupESGGOE0oeHs5MbJ47jlHUbx3G8Xmul6qZum/bpl08PDg+WeQchxK6LEYYQRlGEjb44v4AQDocDm/SjKJJGAgAOplM/CLI4mbM5seu2bUshjDGyI0IInWZd17V1/WdiAlBiL2c4tl1xizE2HI0PZ7PDgwM/COKsZIzVAhGMp9eODqZTo7v51bxtWkywVJJgHLg+Rshmdi+KOOeYYIKJ4zoIIWPMerXhnA+Hw8FgAI1qmmYfzTBGI4Qdi7mOm2VZsksWo6HreYN+/0Z4MhqNkjTN8xwhBD//t3/tpFyuVucX53XTENtxXMd3vCAIpFGe6z149HA2O8SEbuN4vd1sNps02zV1sz/jURQdHx9zzuNNLFvZ6/eburu8vNTqNen/4cNHd25f55wvF6+2m01bV01Tt0oKIQDChFDHsSaTyeF0Sgjd7LZpmiotXcdxXMcYU+eZkupKw8lkMju+HYZhmVRCCBeQ+WK+W10ezmahixhjdVcSjKPBSApxfrWO47jREADQaCWlUnWRpimoyvVqXW42bdtqqfq93uxgwhiLoh4m2PYPZ7OZF4RN02RlZbTxolGWZS2kjLFbD2699dY3qqL49X/++sP/+PeqrnrMOrlx4+BwalmUQGzbtmvbGBOjFABACo0J7rqWEHL7/td6vV6apk8+f/LV0y8IoRgRiJDvuLZtYwiDIBiPxvs9AIjgcrXIsoyLLvAD0nWiqMq2bbQxruN0BiipPM+FEFJMlVabzaZpaiFkstulRV5VVVUXaZIijA4PDoUUp6enbdsmaQIkWCyXZd5cza8IYYP+4I0335jNDjHGq9Xq+fPncRxDrQAAxGHj8dj2/I7zuql2SaKEUEpz0Wmtpwfjfn9gWVYURabjbduOiTUejaHltU1bVRXnXGjUcS6keP781LOh57qr7YIQMhiN66rOqq4sK2g7tu0YQpSSXScIpczzr9+wD954s9fv1UWJEB4Ne5ZlAQAIxm50LYqithPnFxebOC6KEpBVURQC20HgN7qBEF6/dnD/3j2C5LNnz3wMEcZZlmJMbGrVTR3dOBFdB7QRQnAuBv3BtWuz2WwGLdLUTeAHX//61/PdJklSpTUyBmGktSaEcs4vXr0ajUZ37tzRWi9Xi7qqiqpqm5Zst9s0z6q6CsNeGIYcaK1V0/G6Ssg+mxivQQwAALZtJ0kCADAaIkQA0E3bOo4ThmGSphjhRner+VWyK6qqGo0mlmNfXL568fKsE3WWZW1dWZbFKCjLKhiEt4d3xuPhYrnY7dK61EW533mREMHAt4b90LTaMBbYTt8LpqOJHQSmAiUoS7TNdsk2LS8uLpyAYEySii93u+V8HkWREGT/Ec85V5QQTBChQkjR1JQSg4Hne7NbN29cv55ts+ViEadt0yQ+pkoqwio/CIjtKKEGwcClzipOxmEfOw5CKIvnv/0oft7z79y58+Mf/xMAAOj2yaef/v4PTxbzeabNYNBP8wQAwOvOdZ3pZHJycrN/MAWOB4CgXa0VkF07HI1mR0cY0qv5VT+M6qap24bnPN+ldV0P+kMIIaEMEausN+vt7n8B7SRNHxidRAcAAAAASUVORK5CYII=;fontSize=14;" vertex="1" parent="1">
          <mxGeometry x="110" y="318" width="139" height="124" as="geometry" />
        </mxCell>
        <mxCell id="imnoLfW1JiIDLwUic9jQ-6" value="" style="shape=image;verticalLabelPosition=bottom;labelBackgroundColor=default;verticalAlign=top;aspect=fixed;imageAspect=0;image=data:image/png,iVBORw0KGgoAAAANSUhEUgAAAFgAAABCCAIAAABcuoaeAAAAB3RJTUUH3QkRFiQvxVP05wAAHP5JREFUeJyle2uoZdlx3vdVrb3POffV93ZPd8+rp+cpS7JmPNbYJiQBgx9EgeAkOD8SHBMw2CGQHyYEQwIhjkPsQMgDB0xIiA2ByAbj+E/ixODYluxYtgVyJGsyiiWNZkb9mJ6efty+fc9j77Xqy4+1z+N232nJZNHM7LvPfqxdVavqq69q8Vd++7//8pt/dHw8/f4Pv/bXvu+vPAEcSm/dfufnf/7nm2974fOf/8I/+Jt/+88/8dLf+Nl/fPHi47eP781ns/TuYcnlV3/mZz9/9a2//29/5gd+4Ad++TP/czQajd+89UM/9EN//bXv/ol/+pPXvvOZp59++q043trabvucPGUSgCSShUbjKENS0yYprBgAkwEIAgAQAIBiJACakQRgBAARAOqZen1IWI7lEwDA3UhmyEiIq8tcIBkmAA7aJ777E9evvzsZjz/5yV/8ez/1E5/63Of6vv/oucsf+9jLX/vaW5cuXfrV//Kr//G3/uv0eNq2Td/3R/fvP/30023bCui6bjQaffGLXzx37tzh4WEpuZRcgHNnz929ewfAeDxOybExpMDJ8fCZOoys/2i2vFIPXKONcepDPujGhy/wf/iTP/knv/fZxzHe+3Mvj5987Evl6//iV/79Y+ODj73yyq//5m+88i0f+fLF8ZfL/W996oU//j9v/J0/84kP7T3+eLv9Z1/+9g9dfvap0TkeH91788p3vfadH7nw9Hd86KPf8fKrFya7tjX63a+88fRjF0ubJt7mknOf+4SCMARNBrjBIVDHnop7kNkoQzGYAMCcJBlBUBBJmYuUSUT9F4SIqn5uDAPdrMqxGGjDeYACjBQgIgARAkCk3/yD39re3p5Op1KMx5Os7rXXvuOTn/zkj/7Yj47H4/l8fmtx69rVa8++8O3T4+O2bT/+8Y/vJB+PJwCwhYsXH5//4Wc//OEPk9zqcPHgYgDPPffsnf925/atW7FzPvc9ycnW5Kh0G/qJKIjAxhk+qCZAoVPOfsCgDdfW9bI6MGr1llhahpGlvl5wMwL8sV/6N7f/77uz6eyf/fN/9HP/7ufu9v3zL7zw9utvXL787K2yuHr16t/6vr/6Xa9+14//q39yZv/MZ/7wsyXKuIuzB2d/51//h6985Ws//i9/6rHHHrs7P7p69eq1Wzd/+qd/+i+89j3/6dd+8TN3r7344os3Uzmzf6bvF2527AGgKSBZdd47AHRpi6SLAJoAgDYAwCAAYiGtrnmTkXQ+uJQGi3B7QAR1ZIokQ1j5DhFAUQEQRpJJSG+++earlz/6+uuvE/zhH/7hL1+79vrrrz/55JPv37z52Ieef++99w72Dx6HH5w9e+bMme/9vu9tm/bCZOfTn/70++/ffvfd6ymlV1999V53/PGPf/x3P/sHd+/evYWjL33pS/sfvkxa09hisRiP2/l8zuSnrtXNSX8DnX/TVz58F8mH3775QP7Ir/1cu7V1ePfwj//H/5rOps3NuxcvXjz/g9//+MWLmVgsFld/47N3bt9+4WMfPXvu3OFz+yTPnn/sU5/61Dv/+dd3dnc/8pe/59VXX/3K7RsAjt+79Qe///tx7/iVV16+8MpHHn/i8VkJSW2Uvs+27QBC5NKIq0VMyphktYKl5utxkPQo9Xojh5jia4vYjA5mXH1YIWx57DIA1RUE1nZRw4cAkgbw7/72L1gzWiwWW3fzjRs3nkmTyWRy88NP9jnbqM19f+bq/ePpdOf82Z3tndeb+9s7O8ez2d7e3vb//nru++ml/eRpsdO2bTPqdefuXRwdX7hw8Qb7nZ2dBTCZTPr7R9tb28cxrYLA0phzsm9GEACMVgVBslg5VRBVFitBrITSwB8hCFQ/AiS1W4v5dGt76/bZprs4+VoLM9tL1oNGi6a9+dx2zqP59vbVxXwrtYou7Uym0een9nd2dmYjzOczISbus8a4dWG06A9DfWv3vKQ0uq9+Mhnd62ZqHRjWp298dgNCyBufNEyUIAfUEERARhhPfHzYCUEEhIeWz+AruT62JQgBMLhP0kJq27bkknPZ3t4yMwBd1zVNE5KbRSkppdl05mbVqEmWUmg8nh7nkrd3dnIpfe6b1ABInty9bVsAEVEPcimn4oWVDr/hIGmP9BHLAPngwSNARDWK+th06AUoAAI0Um0bUaYqC+tHaLro+nZLUpe4AAjCwC7TeLzT0NgCWiz2R2MI/fEUwKEnS0mFRAphOutBYDxOoIFEAHAmAFs9SBap+u2VMQfrNQUAGGZWWGhcWKn3SmIQgEVd/wDgEQDCBChAAAJpjCg0egkALgAoyQGIVgFZkUAlhVAxxRJ0rJzZAzrk0hvxm1bjo8cJp72hOkHD/5c/0QDAaPhgmLj5hOUMT8yz4ogPMqs0awkkSRNAwKggAgwzN9CAqNN1q+tTAAwEYM5h1iHB1ngGQcDCAcACQPVuLgGiQNIRAJISyUUTJNoCxIAjegOAxYgAZs7kXs97Lxo7ai2k5VJdfagrjCwUyZqtqAiBDIFwWJDYgGnFAIDiSW9T0XsENlbacD4Up6liBdbWqO3Eo1RvjG+UDgBrIExb/1spcIh2J99S/9TGT/Wdj37RqSONiwEBsIV7oUAKICSBBRQQQFBmMTjZGt4cBkAnhUWjggIHB60q6FiJBiSIXjISDBqzi4a5WUS4i6RLAJq6/iPcYUW+fG/KNYtdvjdECkB4tRTR0Gi5vIDeSSJV7xCgoc6JIRdWqz/VVOSEZja/bVCrQESd/UoD9cdlOlzvUohpfc0DXmD135pTEvUuKRQRJaK60uqbHAQQkKTqSqPqnDWdPTHJB0BnRJg9aOxcQ7m15rS8Kq3DMkOggpIqaq82Vn9P9VxV85AFrIS+PJCTXFgGIDcMLgIMAyATjW2kYTZkrjfNO0lTom2bTgWAAW6mRIUiRKBraIRlSBoPLwsAoTw4UqwXOYEwBGK4hg2gGkaixh2JpET44E0ykU5oOIYscMjwyc1Uf1PwD8P+ahz1+g9KChQqJaPASNJCIYmUFJ4SADOzZYJUzSQkJ6NEAC3M3NSfzl980Bvhp52XNt2gkSl1Obym/k5YGBRIogVKwGHmCUCQEVEGQ3UApQSNZiJZKl5UIekpKaRcAIgkralWtahmX0oUAKRJQVozDjOLrhNJgeZQSMpGAKVtilgzUUM4rHITQEiiJRI0VhXWB0SRMQFQXWh1idWVSwCos1UfZjV9QVZJjxKnNnwy1seb8g7K1r8CQJSychDVbiNCkkWFSe426KhoeItqRhyhorLk5opgS3qu0m3IpZSgqrfT5jRWE9bymcAJ1/ewnT7wZwIsVVXZ8OyQFolGWA9JBUFaZwLAcADVablVDQBC2oDAORz1rUuwmAQFWqaIsFKihDuSp8rPeC/zASJmFJINTZKDBNWradsKpYKdpL4U84G/SyqkUK1/QCv1yliJqoavUh2cDBiixgAejAAa+NoiQkFxE0yuZCYFNpaarQCMhiRnWG1a31jDTeUcAbpbWfQVG0glijJyZdNSk1LyHqVt2tlsWpa8lZkDyBFJyrmUkqN0Zrap6JCozQh+iuY/aFSfvXpdquwPa7YfgBGCxABr/loXc32BLACUmuELRobROHBGw9cPfwRYUSYLGbRQnzyNmFJq28oR5a7kkncjo7euHB7dwXyWcylo2rbdm+yWCNFS0dzBKHMVmHnTYp01msAUkMKsARDUA3JgEYBoNnxE1XFUkVGSCamiA0mhcJ7wsCvFxkkMz2CFF2GQqvQYUhVYlCBJB8klzQypuHvTNCZGicVicTw9Prx9+/Dw8Mrs+nw+t65c/+pXERlk2+7s7e0dbJ/ZP9g/OHf+3Llztrc1Go3QeMnFXPSVqdZAGJtzPlX/D1hKndNmepKAgTZKvcxUGjhQAFunYkmRbYGUbCA8GIBgBbS6kg00SJQT0xaAVAJCG+EpGSVpTJX5Ubk3u379+t0r715/9/qdK9cOD+/i/VuefKePx9y3vHH3eXqftGuR32/a8cHBM89cPrh86cLFC3ziYDLZ0mjPYKXiH/aQA6WuEayXTZ07APRwI5ucAMQgwfrxGQVNGRxjekC0pVImBZYqs6aKL0rJUshqMhYbr1zD+2WwsIhIKWlpa4uuOzo66sS33377xhtfufLO27h9DwD6gojHL1wYjUZnRE8+YQJwpF6hMp8B6Lr+9q1bN7v53cPDx7e+xcy9ZMngjUI8DSMsZxVYRpBYOshlfBE2EdhgEY7eDQOfO0BQlyGDkkmzZgGDtwTDBQLKjChqU0QQyDkf7Gx3XRd9l5Lzzj1TFE/j8bgtjZkt7tyPO4ef/+zn3r1+vX/7WqN4qvje3t5W4wA061LHEQRkWiY5YhfSE5PdUvKCye7Nj5RS3H7vjbfSU92OpdFolCZbANi0fd+VSdt1nSkDmIQBqNnt3Kp6OgmFQVLRVlA/WATQpwygWEWWoSqButiG4F8DGLnxqwBEKZB7Sn3EYrFIKY3H45wzSXdzT8ldMh+PJd28efPq1avXv/wnh1eu4OZtLBbbaZxSahZlNpsamqZpEJGR1ffVmGmUZ5K570Oa97OQps75fPZ+d3Tz5s3LDc6fPz8G3LxEr9CQ1Lk9msJawaJTr0pN1Cog5h4A5JSqu+MiAZWVAlhUPzUs+hJ9LscsPk5hOp4f9veP9nb3MOtHo9F+O14sFtMbt65cufL2733h/StXcPsWjBMbmTWX7ueUtD2fJ3ezoHVHI5goBoDGxOr9Je+7xiwyIuRH8xIxvnd/duXWV6bHfOmlvY88v7e3F6MdGMyoUI2rCx8iGgBEpXl9dUbI1YUDQM2VgfpreqDKtJliRhFJbKylnHNEZNHMJM3n8/dvvfelN97QV7+KtoUMOzvPnH9sPB7388Xx/fu575vdXRlJ7maEZHleSijEZBVKZoOZIYJL2q5I2MAtkrquk2Sp7bruyptv9n1+cjtdvnx5+8xORNgGaVajlCH4ENWyuuB0i8iEIBJ9xeRG0rRMMwmgDFidxlxQBBhE7XUxm3dPLBijM1/3vemX38TxHKW8YyNv2135/v7+RbeuAzWKEmneKTQhCjRXni/yXMWTb2k7chR0JL2o75DMAXSF7tbnvpTMTHe/JAd8XMLfvD7f23GfxMFOapqyNZJCNiSQQiSZgWmASLBaWJWoAgAKkimMYngl++Gv/MgP1iDZV4EZJJUILSvvWmLnmhaaGY2eUgO62bm9MxcvXnzy/MWZJ7btIhccTdV1ucvT6bTMpoeHh/1iAWBi3vd9zGcliimqhCWZuSQpQ7AISQqUErPFvJQoiFICdEWQqW3bbtzknO96GY3HOrc7ats+ubu5tct6DVMlE6tlmQ2KXGNfkbTqAW2gFNLCZAECtfoYcADhFU2BZDhKRJNNUAIkFTNEzCyandFMItN+PPb8t7x0mPn1RbE7Xd91B0izwxkan7hN3OL+Yuqduy3ca+ZEY84BQItDAISRVsCQ3AuARe4TI2h0Ji+SZuW+St6ejXboftS1N+81R/NR200nvbkVZgAtPaL0AmngkNCSLKwZffV6AFEA4/C9EpItk/JNVkeKCDldG0uquhkzg3mf+6xsbt18nlIzkg729+ejUcl5Mhr1XRdRMznN53NLDcm+LyRLv1CIHmZeCyW5W2CoRJUYIr/XJCX3fYG7WY3/DF8sFjA2TdN1/bVr1/bevbi1vQXsVkxRSmHTkkP4IFi5tVOJTA2AdCDW0qKURglAYy4JJWhm2UhGIsnKCEVKUgQpiQxvvCmyjC0blxzNaDwWYnsybZyGWZvOoPHk83nXjLZlOj4+NovRaCRaO2lzt+gXPQzuHs6IGKkFoExPHvCcc/bIJc+iN7PcKKWm2U5kbC/mx/PZwkc5L67/0Rd2vd3d30vbiQkEiwLEPFXqGBK2N13jhjS0LrOA8rTil0uEbSjffaiMbeL5emxmVeERA2ZTyD1Ntrbatp1MtnIp/XHnyQ/Ont3Z3i7dDICia5u2zyVClb9pnGaWy7xEKVFoZmDf55IzyYysUDNqzK2wjyg1drS5BXD37t3FYqEtTqfH476PCCznX6JEOZlWAEsC2XAiqx4SEEkpyWuloAxpQwYQnrTM83sLAE2tR5QAEDkcKCkB6B05K3XRRV8WOcEXCV3ibOL7BwdPnn+65Dy9c7tddP29rBxhJkNZwDwpELLMXZkKW5J9ipwzgSY10XUAmt69WKOWJMIl3cWi7/N8J+0+/szZb/vowTNPVzifzCQtHAUotirwUtkkVX9RaosIKpKGQjCvx2lTctwgmrHMPiMKUD16MJRSqvjCzHLOWTKyRD46Ojo6Ojo+nrbzWdM0zz516dnLl6d3pu+8887s9u3ZbNYA7mncetd1qWkklZzdETWClLCTWMA9mdGcZkYzN1NjZn77aHpwcHD5Yy9+6KWXxt/63O7u7r22dR/Yw9XnsKLUh2qfIZ1aqEuZta6BbIUWQ0klCqnM6HK/G25usggVgYRoJgldNsmAUkp/PL/53q0337+ZVZ780EuXn7381KUnm5Te+szn3tI01GOcdgK9Wy5lATHBzZ1IyTEtnnzemNGiZYSXLgNCormNUkuychxz+qgdxQuXnnr55fOvfuTg/Pnu3PaxokNBQ3kUBhEivJYvtEaKFCAFM8nOQLKHw5mXuC1J8pMiKlF8qHeglMIli+XmEiOi1iO8npdKWZDc3z948cUXy3PPvfz009tbW824cbeXX/7YhQsX7r719Rs3btj9e9PjY0nJvcY0qe/7GKembdvKmAcUJbquKxEipDiGAXBL2zs7Z86c3d/fv/jaSy+88EI8cdbMFpX+dcslIxJptaZGsJQCgEbJsUzJh3QjAmYPNG3xL/7OLxmCZG3MKNWxNrXqaiViHJWhdq4CLQxAbhglmFKUMioAkBdd8pRaSGpoAMwteSr3jg8PD8ut969cuVqu3bpz+/b9m4eLxaKfTUm2XaQm3TcgZyQg9yiBtsF8hqbBmV0/f37viScvXbp07oVn9g/2fW88Go2yBYAeMrNomr7vR1vj5EkFinCBtOwIhQVC2gpVtVvt8qT1niLUNxVKa+0juNTJILN1vFAVwQY3TQBRIiJYSonIWSl50zQKpeSSGJjP503TkLa7u3uwf5DOP/b8889vH+Xbt2+99cZXb9y4ceu9d+ezOY7nXddBgns62N3Z3tk/2L9w4cLO/pm9vb324Mze3h52dkejUd4dkZyiS02TBjjaVyhauzkjKtNsDEix2UN3InIugdLKJQHgX/r0L5SB5633OABjIln5nEq6mVqsapgRkuhmZr2XWsQwtxETgOKFpAckTYIAUpaZ16pOpknKxojIylFi9u6d+/fvK2IymXB30rbtaHuyt7c3UwbQO0imstmU0AEgGiMxmH0taa/ZJ3mQLCwAmm6oaWOVldbr6DVVM9KFR9Y1QjRGBMmaqNSVzE0Lqk0nldqpyzKRZqz8dqzJ3cHpRCgkmruP2pEnP9/u9n0PaTQalXEjqTjcLM/nJDUUbb8BMb0RGgQgFAZb1WLWsWOjHQUD/BnAdALgQ665AuK1x0m0WvkFIHkGLEUCuNmq5eE0ipDUOyWNBUOtBA+tHTV97d1J3k8yWm6TpB5Z6neTB2ERiBlKb+YMIJCTAMGMRHZymfulIUEfSsJGblp0/c1q0dNotK4RgIQEoGaf9TkVL2YMiON0i9BJhnd5MipbMfiIja601Vi6j6IljREKSMbBsiIEs4iiUI4SUtcVkpVEicy2HQLaqla8yhpXhDtwQrEPT37p6XBq4RMAaYZ1g3pIqQ1oQ5gqItmUNbczR8GyPAchaDGo21g7FIFSAA2UeK8wMiKTXKRa4XUA0wkjojfQggQTRSeZAhGitSQjKQ+zwQD2BEipoEqDBlghGWwAqDZaDb3EorEAiuHza6uGDc/rser1AYBSYLUPBEBJOsUiHuCsaiI45KAnU7gVEbpZNZBUJIbcTMJAMAAYauC15G0bxDeX6Q6iZi9GI1cVzTVjWk9y411LPnX15+kGsPFpqziIDc+iiIQYPqb2PpYan80ACLl+LmjmJilsteYBojL7BIIwG7x3iqEODqAEAXaUsXbEIwUQYYAba5WcgURLlBnNG6n2zA9EQjEIKDUbMpFsRMlq2mgACuRVBAkAASkKRaOVpgSr0WhoOwWqM6ytPUQMnSLpUVFjJUUgasEjsPSiS0/xsB6G88MCN6n2fS9vqT1msKFWJtFqkalESFZri1j9VzFYhBmHJEFYVSoqIbXsnjrRN3GqdWx4vVh6yaFDPN2HzBUha2pMHrgRYOiGrb2Jg/uB3H1YJlEhiwDALEKVic4KACYHUGultRri8wKgJJKsVN0oV7SXuSSSOpjZYKG1PKu2zt2jlnxJK7TVHGpg2Wg7jOF8A0BRQOuHSnpIGrq/KEjVLQyWFUhYBqJvZjzCV586dFpkOf2yQf4RMCCMq6CjzWrFelVvtJQ/EN0eNZMNv/bASKtuquG65YuAwbwzh4y2ng3CAZJ5gFhV/8QqsgyBuvKwQxMFAScBNGXdkdkAAOZDWkMMXY8Bghy6LWte4JVYrPhFCTFs89HQCTdUJ7AEBLUgUDcBWcl1TuvvQiMpBsQ0BOPTyf8TouG6Ga3SgQ/QFgDiJCn4iE7H6hoefMXJ9Hcj0PwphpZhaNNAPshYHjbtxBh6EB/u2q3n52lt2iLIE5b+sCCXu2Qq7guwItFwVQsYTFqhOQGg90Gl5LA9qzYW1o48OQg0BRh68YdwGwEaCwEoLaOBljVx13o3T7G8OTeuG2/XlD84VLoe7Ik58WGSLZd5xfBYrsxlFrTeO/BowPeIQDNoUjDzyomt5L1hbWunKAAxfNI6zZAGdBVDgY7kA+ZpJ13WakqpDQN6LruSMXQfGYCa8xd6EMvNcMCAIwbfkivTObyktsCaQkTQBu9QCfW6FyvcQOS6JDUUV0A04rBoSqmPG7avbPTuslSM4xga6yrI4rLSqZVhWJDBGkNyM0gGS4toV6IcGq/gtatuU1enjlVxQ1IgIip24mpZDgXVits+IAYtfw0tN5ysiqzSKqddr+rqJFbMCJaupzblPWxfPHn75pxXn/2I6JLuebQxIskIkg6XNHThZzOy9jtp6JN1GsMgFdRSWkmoKy2QUyGJZAAynGQTgJAKSAZ9iDG1UUsqdTenNwBqz60HsNy7kQ2SGgFAbgbbIbkIuVlYABKcRgwbO6qbFElTXz87pGpaVSiNACmjA9CP1lVy4CQfUZdprMM6VrWgb3JIwhI71FW/0lv1NTGg/Q98Aj/YODcfVVv2VFu4MPArG159ycSQKzrplKlibSRpt3cGaIiagFnY0nSDYUuouXoFl9FkQGmbXECsM5Fq6dlgRBp2ZIdgYSDRDBV2mLEzAEjhAFwFUh5MGgCq1Qz9kSWGAqkNjINsLZ0By0oAOiegriGArVk9AwDHDbC0gloHHeW6Slc9VFE9jG2uvSVk+GZx51ID6+s3S2fayBH+P4dCNenGpk+JteZrMe3RiHnt4ACEUix5D5MRLPAaOYwsJIDMDieX0CbzV49TLXhs7LGrOy/HPbDc01t1YgrWbTTLGdcuyWri/Yb9+wAXg2BT9QYjbch9CAtkBlk7h4HIkgp8SLEhQ82D16K3bFjuN60WMW/r/mRLtT+SG6p7hBS/4Vi1MT2inUmKR7iCBwioR8wnTvImGB66PjM0Lg9VWwCr3QrAMv4P0SSUMqKaWCuQzjWqU80pus13P+Q5l90kABC1LzqAZR7hWn9bxX95yNGFZTZVlAFE3TMEI9lE1NaAVUK1sdczqv41NIiKiL76FBMAi7wSSqo+a6DeAGAU61nVXsI6n5yQapBYf9iGdWzsb/lTj4FaXT55jUGHt0TdcrqGEg894dE55fLXR6Wey4TlAxEzNvzZ/wN5RvVwMdE44gAAAABJRU5ErkJggg==;fontSize=14;" vertex="1" parent="1">
          <mxGeometry x="141" y="507" width="88" height="66" as="geometry" />
        </mxCell>
        <mxCell id="imnoLfW1JiIDLwUic9jQ-7" value="" style="endArrow=classic;html=1;rounded=0;exitX=1;exitY=0.5;exitDx=0;exitDy=0;entryX=0;entryY=0.5;entryDx=0;entryDy=0;fontSize=14;" edge="1" parent="1" source="imnoLfW1JiIDLwUic9jQ-5" target="imnoLfW1JiIDLwUic9jQ-2">
          <mxGeometry width="50" height="50" relative="1" as="geometry">
            <mxPoint x="360" y="560" as="sourcePoint" />
            <mxPoint x="410" y="510" as="targetPoint" />
          </mxGeometry>
        </mxCell>
        <mxCell id="imnoLfW1JiIDLwUic9jQ-8" value="" style="endArrow=classic;html=1;rounded=0;exitX=1;exitY=0.5;exitDx=0;exitDy=0;entryX=0;entryY=0.5;entryDx=0;entryDy=0;fontSize=14;" edge="1" parent="1" source="imnoLfW1JiIDLwUic9jQ-6" target="imnoLfW1JiIDLwUic9jQ-3">
          <mxGeometry width="50" height="50" relative="1" as="geometry">
            <mxPoint x="210" y="542.71" as="sourcePoint" />
            <mxPoint x="270" y="543" as="targetPoint" />
          </mxGeometry>
        </mxCell>
        <mxCell id="imnoLfW1JiIDLwUic9jQ-9" value="" style="rounded=0;whiteSpace=wrap;html=1;fillColor=#F84B0C;strokeColor=#d79b00;fontSize=14;" vertex="1" parent="1">
          <mxGeometry x="630" y="493" width="10" height="100" as="geometry" />
        </mxCell>
        <mxCell id="imnoLfW1JiIDLwUic9jQ-10" value="" style="rounded=0;whiteSpace=wrap;html=1;fillColor=#F84B0C;strokeColor=#d79b00;fontSize=14;" vertex="1" parent="1">
          <mxGeometry x="630" y="330" width="10" height="100" as="geometry" />
        </mxCell>
        <mxCell id="imnoLfW1JiIDLwUic9jQ-11" value="" style="endArrow=classic;html=1;rounded=0;exitX=1;exitY=0.5;exitDx=0;exitDy=0;entryX=0;entryY=0.462;entryDx=0;entryDy=0;entryPerimeter=0;fontSize=14;" edge="1" parent="1" source="imnoLfW1JiIDLwUic9jQ-3" target="imnoLfW1JiIDLwUic9jQ-9">
          <mxGeometry width="50" height="50" relative="1" as="geometry">
            <mxPoint x="610" y="480" as="sourcePoint" />
            <mxPoint x="660" y="430" as="targetPoint" />
          </mxGeometry>
        </mxCell>
        <mxCell id="imnoLfW1JiIDLwUic9jQ-15" value="" style="endArrow=classic;html=1;rounded=0;exitX=1;exitY=0.5;exitDx=0;exitDy=0;entryX=0;entryY=0.5;entryDx=0;entryDy=0;fontSize=14;" edge="1" parent="1" source="imnoLfW1JiIDLwUic9jQ-2" target="imnoLfW1JiIDLwUic9jQ-10">
          <mxGeometry width="50" height="50" relative="1" as="geometry">
            <mxPoint x="600" y="460" as="sourcePoint" />
            <mxPoint x="650" y="410" as="targetPoint" />
          </mxGeometry>
        </mxCell>
        <mxCell id="imnoLfW1JiIDLwUic9jQ-17" value="" style="shape=flexArrow;endArrow=classic;html=1;rounded=0;entryX=0.529;entryY=0.99;entryDx=0;entryDy=0;entryPerimeter=0;exitX=0.411;exitY=0.064;exitDx=0;exitDy=0;exitPerimeter=0;fontSize=14;" edge="1" parent="1" source="imnoLfW1JiIDLwUic9jQ-4" target="imnoLfW1JiIDLwUic9jQ-2">
          <mxGeometry width="50" height="50" relative="1" as="geometry">
            <mxPoint x="440" y="450" as="sourcePoint" />
            <mxPoint x="490" y="410" as="targetPoint" />
          </mxGeometry>
        </mxCell>
        <mxCell id="imnoLfW1JiIDLwUic9jQ-18" value="" style="shape=flexArrow;endArrow=classic;html=1;rounded=0;entryX=0.529;entryY=0.99;entryDx=0;entryDy=0;entryPerimeter=0;exitX=0.412;exitY=1.051;exitDx=0;exitDy=0;exitPerimeter=0;fontSize=14;" edge="1" parent="1" source="imnoLfW1JiIDLwUic9jQ-4">
          <mxGeometry width="50" height="50" relative="1" as="geometry">
            <mxPoint x="441" y="470" as="sourcePoint" />
            <mxPoint x="440" y="510" as="targetPoint" />
          </mxGeometry>
        </mxCell>
        <mxCell id="imnoLfW1JiIDLwUic9jQ-20" value="|| x1-x2 ||" style="rounded=0;whiteSpace=wrap;html=1;fontSize=14;" vertex="1" parent="1">
          <mxGeometry x="700" y="430" width="90" height="60" as="geometry" />
        </mxCell>
        <mxCell id="imnoLfW1JiIDLwUic9jQ-21" value="&lt;div style=&quot;font-size: 14px;&quot;&gt;x1&lt;/div&gt;" style="text;html=1;align=center;verticalAlign=middle;whiteSpace=wrap;rounded=0;fontSize=14;" vertex="1" parent="1">
          <mxGeometry x="620" y="300" width="60" height="30" as="geometry" />
        </mxCell>
        <mxCell id="imnoLfW1JiIDLwUic9jQ-22" value="x2" style="text;html=1;align=center;verticalAlign=middle;whiteSpace=wrap;rounded=0;fontSize=14;" vertex="1" parent="1">
          <mxGeometry x="620" y="463" width="60" height="30" as="geometry" />
        </mxCell>
        <mxCell id="imnoLfW1JiIDLwUic9jQ-23" value="" style="endArrow=classic;html=1;rounded=0;exitX=1;exitY=0.5;exitDx=0;exitDy=0;entryX=0;entryY=0.5;entryDx=0;entryDy=0;fontSize=14;" edge="1" parent="1" source="imnoLfW1JiIDLwUic9jQ-9" target="imnoLfW1JiIDLwUic9jQ-20">
          <mxGeometry width="50" height="50" relative="1" as="geometry">
            <mxPoint x="510" y="440" as="sourcePoint" />
            <mxPoint x="560" y="390" as="targetPoint" />
          </mxGeometry>
        </mxCell>
        <mxCell id="imnoLfW1JiIDLwUic9jQ-24" value="" style="endArrow=classic;html=1;rounded=0;exitX=1;exitY=0.5;exitDx=0;exitDy=0;fontSize=14;" edge="1" parent="1" source="imnoLfW1JiIDLwUic9jQ-10">
          <mxGeometry width="50" height="50" relative="1" as="geometry">
            <mxPoint x="510" y="440" as="sourcePoint" />
            <mxPoint x="700" y="460" as="targetPoint" />
          </mxGeometry>
        </mxCell>
        <mxCell id="imnoLfW1JiIDLwUic9jQ-25" value="" style="endArrow=classic;html=1;rounded=0;exitX=1;exitY=0.5;exitDx=0;exitDy=0;fontSize=14;" edge="1" parent="1" source="imnoLfW1JiIDLwUic9jQ-20">
          <mxGeometry width="50" height="50" relative="1" as="geometry">
            <mxPoint x="640" y="440" as="sourcePoint" />
            <mxPoint x="830" y="460" as="targetPoint" />
          </mxGeometry>
        </mxCell>
        <mxCell id="imnoLfW1JiIDLwUic9jQ-26" value="Distance between x1 and x2" style="text;html=1;align=center;verticalAlign=middle;whiteSpace=wrap;rounded=0;fontSize=14;" vertex="1" parent="1">
          <mxGeometry x="810" y="410" width="110" height="30" as="geometry" />
        </mxCell>
      </root>
    </mxGraphModel>
  </diagram>
</mxfile>
